<svg width="44" height="40" viewBox="0 0 56 54" fill="none" xmlns="http://www.w3.org/2000/svg">
<path opacity="0.4" d="M39.6334 0H16.2276C6.06093 0 0 5.81379 0 15.566V37.9906C0 47.7695 6.06093 53.5833 16.2276 53.5833H39.6055C49.7722 53.5833 55.8332 47.7695 55.8332 38.0174V15.566C55.8611 5.81379 49.8002 0 39.6334 0Z" fill="#3F7CC9"/>
<path d="M30.8894 26.7919L37.3134 20.6299C38.1234 19.8529 38.1234 18.5669 37.3134 17.79C36.5034 17.013 35.1627 17.013 34.3528 17.79L27.9287 23.952L21.5046 17.79C20.6946 17.013 19.354 17.013 18.544 17.79C17.734 18.5669 17.734 19.8529 18.544 20.6299L24.9681 26.7919L18.544 32.954C17.734 33.731 17.734 35.017 18.544 35.7939C18.963 36.1958 19.4936 36.3833 20.0243 36.3833C20.555 36.3833 21.0857 36.1958 21.5046 35.7939L27.9287 29.6319L34.3528 35.7939C34.7717 36.1958 35.3024 36.3833 35.8331 36.3833C36.3638 36.3833 36.8944 36.1958 37.3134 35.7939C38.1234 35.017 38.1234 33.731 37.3134 32.954L30.8894 26.7919Z" fill="#292D32"/>
</svg>
