<svg width="832" height="676" viewBox="0 0 832 676" fill="none" xmlns="http://www.w3.org/2000/svg">
<path d="M803.558 357.506C807.722 307.289 794.855 254.861 777.616 208.196C752.112 138.72 702.311 67.5237 618.614 51.0807C570.353 41.6307 521.239 51.7611 479.849 75.4995C440.062 98.3307 409.061 127.834 360.113 133.541C310.624 139.325 259.844 137 210.105 137C82.2076 137 -21.5801 258.962 4.36163 386.008C30.3033 513.053 152.642 601.146 256.429 601.146C349.703 601.146 426.446 550.362 515.035 536.716C558.965 529.95 603.082 537.964 646.555 527.833C697.085 516.04 744.596 487.935 772.599 447.244C791.67 419.498 800.956 388.937 803.558 357.506Z" fill="#0072C6"/>
<path opacity="0.7" d="M803.558 357.506C807.722 307.289 794.855 254.861 777.616 208.196C752.112 138.72 702.311 67.5237 618.614 51.0807C570.353 41.6307 521.239 51.7611 479.849 75.4995C440.062 98.3307 409.061 127.834 360.113 133.541C310.624 139.325 259.844 137 210.105 137C82.2076 137 -21.5801 258.962 4.36163 386.008C30.3033 513.053 152.642 601.146 256.429 601.146C349.703 601.146 426.446 550.362 515.035 536.716C558.965 529.95 603.082 537.964 646.555 527.833C697.085 516.04 744.596 487.935 772.599 447.244C791.67 419.498 800.956 388.937 803.558 357.506Z" fill="white"/>
<path d="M788.589 339.873C788.589 339.873 788.589 330.423 774.015 317.325C759.441 304.227 750.196 296.63 750.196 296.63C750.196 296.63 742.951 318.251 756.442 331.424C766.347 340.676 777.085 349.161 788.547 356.788L788.589 339.873Z" fill="#0072C6"/>
<path d="M767.56 398.576C767.56 398.576 767.56 389.126 752.986 376.028C738.412 362.931 729.21 355.333 729.21 355.333C729.21 355.333 721.944 376.954 735.456 390.128C745.36 399.38 756.099 407.864 767.56 415.492V398.576Z" fill="#0072C6"/>
<path d="M787.673 355.881C787.673 355.881 788.776 346.544 804.724 334.845C820.673 323.146 830.812 316.569 830.812 316.569C830.812 316.569 835.496 338.758 820.589 350.589C809.665 358.842 798 366.251 785.716 372.74L787.673 355.881Z" fill="#0072C6"/>
<path d="M762.272 425.206C762.272 425.206 764.354 416.021 781.655 405.909C798.957 395.798 809.7 390.222 809.7 390.222C809.7 390.222 811.782 412.751 795.605 423.052C783.784 430.219 771.326 436.477 758.358 441.763L762.272 425.206Z" fill="#0072C6"/>
<path d="M767.04 500.806C767.04 500.806 767.04 491.356 781.614 478.24C796.188 465.123 805.411 457.563 805.411 457.563C805.411 457.563 812.677 479.185 799.165 492.339C789.265 501.601 778.526 510.091 767.061 517.722L767.04 500.806Z" fill="#0072C6"/>
<path d="M766.811 519.253C766.811 519.253 768.268 509.954 755.984 495.061C743.701 480.167 735.643 471.511 735.643 471.511C735.643 471.511 725.088 491.98 736.351 506.741C744.701 517.18 753.998 526.967 764.146 535.998L766.811 519.253Z" fill="#0072C6"/>
<path d="M752.508 573.93C752.508 573.93 752.508 564.48 767.082 551.383C781.656 538.285 790.9 530.687 790.9 530.687C790.9 530.687 798.145 552.309 784.654 565.482C774.747 574.737 764.008 583.227 752.549 590.865L752.508 573.93Z" fill="#0072C6"/>
<path d="M762.189 623.505C762.189 623.505 759.566 614.414 769.913 598.349C780.261 582.284 787.194 572.872 787.194 572.872C787.194 572.872 800.227 592.112 790.879 607.95C783.886 619.179 775.87 629.857 766.915 639.872L762.189 623.505Z" fill="#0072C6"/>
<path d="M789.901 337.472C789.172 347.258 787.851 357 785.945 366.654C780.198 393.53 765.874 410.88 760.149 435.148C754.423 459.415 770.871 490.695 766.395 521.88C761.918 553.065 748.635 570.396 752.445 591.205C756.255 612.014 776.326 668.374 776.326 668.374" stroke="#263238" stroke-linecap="round" stroke-linejoin="round"/>
<path d="M787.548 362.137L803.163 351.251" stroke="#263238" stroke-linecap="round" stroke-linejoin="round"/>
<path d="M788.277 349.606L781.718 339.041" stroke="#263238" stroke-linecap="round" stroke-linejoin="round"/>
<path d="M761.023 434.032C761.023 434.032 774.098 425.131 787.548 416.229" stroke="#263238" stroke-linecap="round" stroke-linejoin="round"/>
<path d="M767.561 415.492C767.561 415.492 756.651 396.1 744.305 383.248" stroke="#263238" stroke-linecap="round" stroke-linejoin="round"/>
<path d="M767.561 514.187C775.019 501.674 784.445 490.214 795.543 480.167" stroke="#263238" stroke-linecap="round" stroke-linejoin="round"/>
<path d="M765.021 527.38C761.053 518.895 756.31 510.727 750.842 502.961C743.222 492.736 742.119 491.413 742.119 491.413" stroke="#263238" stroke-linecap="round" stroke-linejoin="round"/>
<path d="M752.508 591.205C755.827 583.756 759.767 576.546 764.292 569.64C768.82 563.221 773.924 557.152 779.553 551.496" stroke="#263238" stroke-linecap="round" stroke-linejoin="round"/>
<path d="M766.915 639.872C766.156 632.75 767.507 625.572 770.829 619.082C776.284 609.519 782.447 596.988 784.987 592.036" stroke="#263238" stroke-linecap="round" stroke-linejoin="round"/>
<path d="M670.29 465.463C670.29 465.463 669.165 459.566 676.681 449.871C684.197 440.175 689.173 434.562 689.173 434.562C689.173 434.562 696.294 447.414 689.423 456.977C684.32 463.761 678.603 470.146 672.33 476.066L670.29 465.463Z" fill="#0072C6"/>
<path d="M690.506 500.201C690.506 500.201 689.382 494.305 696.898 484.609C704.414 474.913 709.39 469.3 709.39 469.3C709.39 469.3 716.51 482.152 709.639 491.734C704.533 498.509 698.816 504.888 692.546 510.804L690.506 500.201Z" fill="#0072C6"/>
<path d="M672.767 475.405C672.767 475.405 670.977 469.735 659.567 463.894C648.158 458.054 641.037 454.993 641.037 454.993C641.037 454.993 640.746 469.375 651.447 475.31C659.283 479.405 667.479 482.9 675.953 485.762L672.767 475.405Z" fill="#0072C6"/>
<path d="M697.002 516.38C697.002 516.38 694.545 510.823 682.552 506.174C670.56 501.524 663.065 499.105 663.065 499.105C663.065 499.105 664.439 513.431 675.848 518.308C684.116 521.633 692.675 524.326 701.436 526.359L697.002 516.38Z" fill="#0072C6"/>
<path d="M703.039 564.253C703.039 564.253 701.936 558.357 691.255 551.534C680.575 544.711 673.85 540.912 673.85 540.912C673.85 540.912 671.893 555.182 681.907 562.099C689.223 566.935 696.974 571.203 705.08 574.856L703.039 564.253Z" fill="#0072C6"/>
<path d="M705.413 575.801C705.413 575.801 703.331 570.131 709.306 559.547C715.281 548.963 719.237 542.783 719.237 542.783C719.237 542.783 728.294 554.577 723.006 564.953C719.021 572.319 714.362 579.369 709.077 586.026L705.413 575.801Z" fill="#0072C6"/>
<path d="M723.609 623.335C723.609 623.335 724.359 617.4 734.581 610.105C744.804 602.81 751.237 598.595 751.237 598.595C751.237 598.595 754.09 612.751 744.533 620.179C737.534 625.378 730.068 630.037 722.214 634.108L723.609 623.335Z" fill="#0072C6"/>
<path d="M720.882 608.669C720.882 608.669 719.758 602.772 709.098 595.949C698.438 589.126 691.734 585.327 691.734 585.327C691.734 585.327 689.777 599.596 699.791 606.533C707.113 611.361 714.864 615.628 722.964 619.29L720.882 608.669Z" fill="#0072C6"/>
<path d="M720.882 640.723C720.882 640.723 721.424 634.75 713.012 625.697C704.601 616.644 699.146 611.428 699.146 611.428C699.146 611.428 693.254 624.771 701.02 633.787C706.712 640.135 712.98 646.04 719.758 651.439L720.882 640.723Z" fill="#0072C6"/>
<path d="M669.186 464.065C670.815 470.132 672.81 476.113 675.161 481.982C681.97 498.274 693.025 507.743 699.521 522.39C706.017 537.038 699.521 558.3 705.933 577.408C712.346 596.516 722.964 606.079 722.964 619.498C722.964 632.917 717.218 670.245 717.218 670.245" stroke="#263238" stroke-linecap="round" stroke-linejoin="round"/>
<path d="M673.62 479.298L662.523 474.025" stroke="#263238" stroke-linecap="round" stroke-linejoin="round"/>
<path d="M671.664 471.511L674.495 464.254" stroke="#263238" stroke-linecap="round" stroke-linejoin="round"/>
<path d="M698.834 521.785C698.834 521.785 689.569 517.495 680.096 513.223" stroke="#263238" stroke-linecap="round" stroke-linejoin="round"/>
<path d="M692.525 510.804C695.257 503.017 698.849 495.501 703.248 488.37" stroke="#263238" stroke-linecap="round" stroke-linejoin="round"/>
<path d="M704.33 572.683C698.152 565.586 690.873 559.341 682.719 554.142" stroke="#263238" stroke-linecap="round" stroke-linejoin="round"/>
<path d="M707.495 580.697C708.976 574.994 710.975 569.412 713.47 564.008C717.03 556.845 717.634 555.9 717.634 555.9" stroke="#263238" stroke-linecap="round" stroke-linejoin="round"/>
<path d="M722.464 629.685C726.075 625.624 730.074 621.861 734.415 618.44C737.177 616.594 739.767 614.546 742.16 612.316" stroke="#263238" stroke-linecap="round" stroke-linejoin="round"/>
<path d="M722.964 619.498C719.99 615.143 716.656 610.998 712.991 607.1C709.383 603.524 705.455 600.224 701.249 597.234" stroke="#263238" stroke-linecap="round" stroke-linejoin="round"/>
<path d="M719.758 651.439C719.385 646.894 717.682 642.523 714.823 638.776C710.264 633.314 704.892 626.057 702.706 623.203" stroke="#263238" stroke-linecap="round" stroke-linejoin="round"/>
<path d="M78.939 383.135L69.8198 359.491L78.939 369.527L71.7769 334.052L82.8531 359.491L86.7673 309.803L93.284 357.109L100.446 347.659V359.491L108.92 343.52L104.36 371.303L112.168 366.578L99.8006 381.944L78.939 383.135Z" fill="#0072C6"/>
<path d="M107.608 377.219H73.7339L79.8341 439.306H101.508L107.608 377.219Z" fill="#263238" stroke="#263238" stroke-linecap="round" stroke-linejoin="round"/>
<path d="M171.151 438.606H55.7456V660.492H171.151V438.606Z" fill="white" stroke="#263238" stroke-linecap="round" stroke-linejoin="round"/>
<path d="M177.46 438.606H113.438V660.492H177.46V438.606Z" fill="white" stroke="#263238" stroke-linecap="round" stroke-linejoin="round"/>
<path d="M170.256 438.606H113.438V660.492H170.256V438.606Z" fill="#263238" stroke="#263238" stroke-linecap="round" stroke-linejoin="round"/>
<path d="M163.864 608.895H113.438V654.331H163.864V608.895Z" fill="#0072C6" stroke="#263238" stroke-linecap="round" stroke-linejoin="round"/>
<path d="M163.864 611.352H113.438V617.173H163.864V611.352Z" fill="white" stroke="#263238" stroke-linecap="round" stroke-linejoin="round"/>
<path d="M163.864 644.805H113.438V650.627H163.864V644.805Z" fill="white" stroke="#263238" stroke-linecap="round" stroke-linejoin="round"/>
<path d="M122.994 609.84V667.296" stroke="#263238" stroke-linecap="round" stroke-linejoin="round"/>
<path d="M140.587 609.84V667.296" stroke="#263238" stroke-linecap="round" stroke-linejoin="round"/>
<path d="M156.036 609.84V667.296" stroke="#263238" stroke-linecap="round" stroke-linejoin="round"/>
<path d="M163.864 446.847H113.438V513.658H163.864V446.847Z" fill="#0072C6" stroke="#263238" stroke-linecap="round" stroke-linejoin="round"/>
<path d="M163.864 449.644H113.438V456.259H163.864V449.644Z" fill="white" stroke="#263238" stroke-linecap="round" stroke-linejoin="round"/>
<path d="M163.864 492.471H113.438V499.086H163.864V492.471Z" fill="white" stroke="#263238" stroke-linecap="round" stroke-linejoin="round"/>
<path d="M122.994 447.905V513.205" stroke="#263238" stroke-linecap="round" stroke-linejoin="round"/>
<path d="M140.587 447.905V513.205" stroke="#263238" stroke-linecap="round" stroke-linejoin="round"/>
<path d="M156.036 447.905V513.205" stroke="#263238" stroke-linecap="round" stroke-linejoin="round"/>
<path d="M163.864 527.361H113.438V594.172H163.864V527.361Z" fill="#0072C6" stroke="#263238" stroke-linecap="round" stroke-linejoin="round"/>
<path d="M163.864 530.158H113.438V536.773H163.864V530.158Z" fill="white" stroke="#263238" stroke-linecap="round" stroke-linejoin="round"/>
<path d="M163.864 572.985H113.438V579.6H163.864V572.985Z" fill="white" stroke="#263238" stroke-linecap="round" stroke-linejoin="round"/>
<path d="M122.994 528.438V593.719" stroke="#263238" stroke-linecap="round" stroke-linejoin="round"/>
<path d="M140.587 528.438V593.719" stroke="#263238" stroke-linecap="round" stroke-linejoin="round"/>
<path d="M156.036 528.438V593.719" stroke="#263238" stroke-linecap="round" stroke-linejoin="round"/>
<path d="M171.13 512.732H113.438V520.33H171.13V512.732Z" fill="white" stroke="#263238" stroke-linecap="round" stroke-linejoin="round"/>
<path d="M171.13 593.756H113.438V601.354H171.13V593.756Z" fill="white" stroke="#263238" stroke-linecap="round" stroke-linejoin="round"/>
<path d="M171.13 438.606V660.473" stroke="#263238" stroke-linecap="round" stroke-linejoin="round"/>
<path d="M105.297 438.606V660.473H113.438V446.847H170.131V438.512L105.297 438.606Z" fill="white" stroke="#263238" stroke-linecap="round" stroke-linejoin="round"/>
<path d="M113.438 446.847V438.606" stroke="#263238" stroke-linecap="round" stroke-linejoin="round"/>
<path d="M170.692 336.679C164.634 326.076 162.094 318.478 162.094 316.72C162.094 313.243 170.422 311.164 170.422 311.164C183.413 304.927 244.52 313.942 272.023 318.1C287.419 320.536 302.994 321.926 318.618 322.258C318.618 322.258 322.429 319.498 326.946 316.021C331.464 312.543 352.909 289.674 361.32 287.671C369.732 285.667 377.352 290.449 377.352 290.449C377.352 290.449 391.114 298.009 388.803 299.465C386.492 300.92 352.909 327.191 344.498 332.048C336.086 336.905 318.535 334.826 303.253 337.605C290.095 339.986 236.796 342.934 224.575 343.842C215.396 345.818 205.763 345.09 197.071 341.763" fill="white"/>
<mask id="mask0_281_296" style="mask-type:luminance" maskUnits="userSpaceOnUse" x="162" y="287" width="228" height="58">
<path d="M170.692 336.679C164.634 326.076 162.094 318.478 162.094 316.72C162.094 313.243 170.422 311.164 170.422 311.164C183.413 304.927 244.52 313.942 272.023 318.1C287.419 320.536 302.994 321.926 318.618 322.258C318.618 322.258 322.429 319.498 326.946 316.021C331.464 312.543 352.909 289.674 361.32 287.671C369.732 285.667 377.352 290.449 377.352 290.449C377.352 290.449 391.114 298.009 388.803 299.465C386.492 300.92 352.909 327.191 344.498 332.048C336.086 336.905 318.535 334.826 303.253 337.605C290.095 339.986 236.796 342.934 224.575 343.842C215.396 345.818 205.763 345.09 197.071 341.763" fill="white"/>
</mask>
<g mask="url(#mask0_281_296)">
<path d="M377.497 290.374C377.497 290.374 369.856 285.516 361.466 287.595C353.075 289.674 331.672 312.562 327.092 315.945C322.512 319.328 318.764 322.182 318.764 322.182C303.14 321.851 287.565 320.461 272.169 318.024C244.666 313.866 183.559 304.794 170.567 311.088C170.567 311.088 162.239 313.167 162.239 316.645C162.529 318.589 163.081 320.493 163.884 322.315L165.029 322.693C165.029 322.693 180.29 321.237 213.227 321.955C246.165 322.674 322.345 326.775 327.238 328.382C329.32 329.1 344.081 326.076 360.446 320.822C372.938 311.579 387.616 300.032 389.094 299.219C391.259 297.99 377.497 290.374 377.497 290.374Z" fill="#0072C6"/>
<path opacity="0.5" d="M377.497 290.374C377.497 290.374 369.856 285.516 361.466 287.595C353.075 289.674 331.672 312.562 327.092 315.945C322.512 319.328 318.764 322.182 318.764 322.182C303.14 321.851 287.565 320.461 272.169 318.024C244.666 313.866 183.559 304.794 170.567 311.088C170.567 311.088 162.239 313.167 162.239 316.645C162.529 318.589 163.081 320.493 163.884 322.315L165.029 322.693C165.029 322.693 180.29 321.237 213.227 321.955C246.165 322.674 322.345 326.775 327.238 328.382C329.32 329.1 344.081 326.076 360.446 320.822C372.938 311.579 387.616 300.032 389.094 299.219C391.259 297.99 377.497 290.374 377.497 290.374Z" fill="white"/>
</g>
<path d="M170.692 336.679C164.634 326.076 162.094 318.478 162.094 316.72C162.094 313.243 170.422 311.164 170.422 311.164C183.413 304.927 244.52 313.942 272.023 318.1C287.419 320.536 302.994 321.926 318.618 322.258C318.618 322.258 322.429 319.498 326.946 316.021C331.464 312.543 352.909 289.674 361.32 287.671C369.732 285.667 377.352 290.449 377.352 290.449C377.352 290.449 391.114 298.009 388.803 299.465C386.492 300.92 352.909 327.191 344.498 332.048C336.086 336.905 318.535 334.826 303.253 337.605C290.095 339.986 236.796 342.934 224.575 343.842C215.396 345.818 205.763 345.09 197.071 341.763" stroke="#263238" stroke-linecap="round" stroke-linejoin="round"/>
<path d="M472.395 398.33C473.777 395.949 475.85 393.956 478.389 392.567C480.928 391.178 483.838 390.446 486.803 390.449H625.672C625.672 390.449 635.707 390.449 632.709 407.762C629.711 425.074 588.529 530.782 578.577 562.742C568.625 594.701 566.522 662.061 566.522 662.061H399.962C399.962 662.061 413.162 500.976 472.395 398.33Z" fill="white"/>
<mask id="mask1_281_296" style="mask-type:luminance" maskUnits="userSpaceOnUse" x="399" y="390" width="235" height="273">
<path d="M472.395 398.33C473.777 395.949 475.85 393.956 478.389 392.567C480.928 391.178 483.838 390.446 486.803 390.449H625.672C625.672 390.449 635.707 390.449 632.709 407.762C629.711 425.074 588.529 530.782 578.577 562.742C568.625 594.701 566.522 662.061 566.522 662.061H399.962C399.962 662.061 413.162 500.976 472.395 398.33Z" fill="white"/>
</mask>
<g mask="url(#mask1_281_296)">
<path opacity="0.16" d="M534.938 390.449H486.802C483.838 390.446 480.928 391.178 478.389 392.567C475.849 393.956 473.777 395.949 472.395 398.33C413.162 500.976 399.816 662.004 399.816 662.004H474.519L492.944 598.481L569.77 612.864C570.311 607.534 570.936 602.11 571.665 596.762L569.978 579.752C569.978 579.752 554.238 564.726 549.283 560.965C544.328 557.204 547.618 550.419 546.785 521.105C545.952 491.791 516.971 470.717 506.186 452.668C495.401 434.618 511.995 423.335 526.902 405.286C532.211 398.765 534.376 393.965 534.938 390.449Z" fill="black"/>
</g>
<path d="M472.395 398.33C473.777 395.949 475.85 393.956 478.389 392.567C480.928 391.178 483.838 390.446 486.803 390.449H625.672C625.672 390.449 635.707 390.449 632.709 407.762C629.711 425.074 588.529 530.782 578.577 562.742C568.625 594.701 566.522 662.061 566.522 662.061H399.962C399.962 662.061 413.162 500.976 472.395 398.33Z" stroke="#263238" stroke-linecap="round" stroke-linejoin="round"/>
<path d="M601.584 420.519C587.551 450.249 557.861 567.939 553.031 662.004H566.439C566.439 662.004 568.521 594.569 578.494 562.685C588.467 530.801 629.69 425.074 632.626 407.705C635.562 390.336 625.589 390.392 625.589 390.392C625.589 390.392 612.847 396.686 601.584 420.519Z" fill="#263238" stroke="#263238" stroke-linecap="round" stroke-linejoin="round"/>
<path d="M357.636 361.097C357.636 361.097 335.483 349.304 327.093 328.514C318.702 307.724 392.78 274.422 424.947 272.343C457.114 270.264 466.191 277.881 485.325 307.705C504.458 337.529 517.408 378.429 507.477 398.538C497.546 418.648 480.744 423.505 492.903 440.118C505.062 456.731 539.498 503.906 537.208 526.094C534.918 548.283 511.246 567.674 476.83 569.791C442.415 571.908 396.611 553.14 358.427 522.541C320.243 491.942 330.153 446.941 343.853 432.388C357.552 417.835 378.227 412.279 379.746 397.726C381.266 383.173 357.636 361.097 357.636 361.097Z" fill="#263238" stroke="#263238" stroke-linecap="round" stroke-linejoin="round"/>
<path d="M452 328C463.763 347.883 478.483 374.513 483.084 390.597C491.121 418.758 449.772 436.486 461.244 450.037" stroke="white" stroke-linecap="round" stroke-linejoin="round"/>
<path d="M436.022 302.148C436.022 302.148 440.603 309.236 446.932 319.669" stroke="white" stroke-linecap="round" stroke-linejoin="round"/>
<path d="M497.733 352.177C499.09 355.903 499.97 359.759 500.357 363.668" stroke="white" stroke-linecap="round" stroke-linejoin="round"/>
<path d="M443.976 291.81C443.976 291.81 480.161 316.078 494.61 345.127" stroke="white" stroke-linecap="round" stroke-linejoin="round"/>
<path d="M393.758 310.011C367.92 316.588 330.757 327.266 333.775 333.428" stroke="white" stroke-linecap="round" stroke-linejoin="round"/>
<path d="M417.639 304.227C417.639 304.227 412.121 305.475 403.897 307.478" stroke="white" stroke-linecap="round" stroke-linejoin="round"/>
<path d="M385.68 291.98C400.48 287.746 415.981 285.891 431.484 286.499" stroke="white" stroke-linecap="round" stroke-linejoin="round"/>
<path d="M375.145 295.892C377.485 294.786 379.906 293.826 382.39 293.02" stroke="white" stroke-linecap="round" stroke-linejoin="round"/>
<path d="M170.693 336.679C167.186 330.849 164.393 324.689 162.365 318.308C164.384 324.692 167.177 330.853 170.693 336.679ZM162.136 317.23C162.136 317.344 162.136 317.476 162.136 317.646C162.177 317.476 162.156 317.344 162.136 317.23ZM170.693 336.66C178.479 350.048 188.167 362.452 199.508 373.553C227.011 400.598 306.46 471.341 314.018 476.198C321.575 481.056 319.368 494.909 314.018 508.782C308.667 522.655 288.805 542.802 289.575 564.953C290.345 587.104 297.903 621.124 297.216 628.06C296.529 634.996 277.416 658.583 277.416 658.583H474.498C474.498 658.583 449.93 630.233 449.93 620.538C449.93 610.842 483.659 486.612 485.179 477.597C486.699 468.582 480.598 462.345 468.377 461.645C456.156 460.946 409.561 451.931 407.27 444.994C404.98 438.058 419.492 411.712 419.492 411.712L373.688 413.791C373.688 413.791 371.397 431.821 368.337 435.299C365.276 438.776 360.696 431.821 349.995 426.983C339.293 422.144 318.764 417.967 311.04 412.411C303.316 406.854 230.071 344.371 230.071 344.371" fill="white"/>
<mask id="mask2_281_296" style="mask-type:luminance" maskUnits="userSpaceOnUse" x="162" y="316" width="324" height="343">
<path d="M170.693 336.679C167.186 330.849 164.393 324.689 162.365 318.308C164.384 324.692 167.177 330.853 170.693 336.679ZM162.136 317.23C162.136 317.344 162.136 317.476 162.136 317.646C162.177 317.476 162.156 317.344 162.136 317.23ZM170.693 336.66C178.479 350.048 188.167 362.452 199.508 373.553C227.011 400.598 306.46 471.341 314.018 476.198C321.575 481.056 319.368 494.909 314.018 508.782C308.667 522.655 288.805 542.802 289.575 564.953C290.345 587.104 297.903 621.124 297.216 628.06C296.529 634.996 277.416 658.583 277.416 658.583H474.498C474.498 658.583 449.93 630.233 449.93 620.538C449.93 610.842 483.659 486.612 485.179 477.597C486.699 468.582 480.598 462.345 468.377 461.645C456.156 460.946 409.561 451.931 407.27 444.994C404.98 438.058 419.492 411.712 419.492 411.712L373.688 413.791C373.688 413.791 371.397 431.821 368.337 435.299C365.276 438.776 360.696 431.821 349.995 426.983C339.293 422.144 318.764 417.967 311.04 412.411C303.316 406.854 230.071 344.371 230.071 344.371" fill="white"/>
</mask>
<g mask="url(#mask2_281_296)">
<path d="M322.741 417.76C326.551 423.808 330.361 429.27 330.361 429.27C330.361 429.27 343.207 435.828 346.414 435.828C349.62 435.828 368.899 445.278 368.899 445.278C368.899 445.278 384.972 441.63 379.309 429.232C377.523 426.058 375.267 423.12 372.605 420.5C371.647 426 370.107 433.201 368.295 435.261C365.235 438.72 360.654 431.783 349.953 426.945C343.02 423.808 331.798 420.935 322.741 417.76Z" fill="#0072C6"/>
<path d="M283.516 389.693C259.927 369.867 230.071 344.447 230.071 344.447L212.707 342.178L210.625 343.237C210.625 343.237 259.636 382.606 270.067 386.99C274.286 388.751 278.872 389.673 283.516 389.693Z" fill="#0072C6"/>
<path d="M308.23 410.218L306.356 408.707C307.314 410.143 307.855 411.05 307.855 411.05L308.23 410.218Z" fill="#0072C6"/>
<g opacity="0.5">
<path d="M322.741 417.76C326.551 423.808 330.361 429.27 330.361 429.27C330.361 429.27 343.207 435.828 346.414 435.828C349.62 435.828 368.899 445.278 368.899 445.278C368.899 445.278 384.972 441.63 379.309 429.232C377.523 426.058 375.267 423.12 372.605 420.5C371.647 426 370.107 433.201 368.295 435.261C365.235 438.72 360.654 431.783 349.953 426.945C343.02 423.808 331.798 420.935 322.741 417.76Z" fill="white"/>
<path d="M283.516 389.693C259.927 369.867 230.071 344.447 230.071 344.447L212.707 342.178L210.625 343.237C210.625 343.237 259.636 382.606 270.067 386.99C274.286 388.751 278.872 389.673 283.516 389.693Z" fill="white"/>
<path d="M308.23 410.218L306.356 408.707C307.314 410.143 307.855 411.05 307.855 411.05L308.23 410.218Z" fill="white"/>
</g>
</g>
<path d="M162.094 316.72C162.085 316.852 162.085 316.985 162.094 317.117M162.365 318.308C164.393 324.689 167.186 330.849 170.693 336.679C167.177 330.853 164.384 324.692 162.365 318.308ZM162.365 318.308C162.307 318.128 162.265 317.945 162.24 317.76M170.693 336.66C178.479 350.048 188.167 362.452 199.508 373.553C227.011 400.598 306.46 471.341 314.018 476.198C321.575 481.056 319.368 494.909 314.018 508.782C308.667 522.655 288.805 542.802 289.575 564.953C290.345 587.104 297.903 621.124 297.216 628.06C296.529 634.996 277.416 658.583 277.416 658.583H474.498C474.498 658.583 449.93 630.233 449.93 620.538C449.93 610.842 483.659 486.612 485.179 477.597C486.699 468.582 480.598 462.345 468.377 461.645C456.156 460.946 409.561 451.931 407.27 444.994C404.98 438.058 419.492 411.712 419.492 411.712L373.688 413.791C373.688 413.791 371.397 431.821 368.337 435.299C365.276 438.776 360.696 431.821 349.995 426.983C339.293 422.144 318.764 417.967 311.04 412.411C303.316 406.854 230.071 344.371 230.071 344.371M162.136 317.23C162.136 317.344 162.136 317.476 162.136 317.646C162.177 317.476 162.156 317.344 162.136 317.23Z" stroke="#263238" stroke-linecap="round" stroke-linejoin="round"/>
<path d="M230.072 344.446C230.072 344.446 205.67 344.862 192.054 334.675" stroke="#263238" stroke-linecap="round" stroke-linejoin="round"/>
<path d="M407.291 444.994C405.001 438.077 419.513 411.712 419.513 411.712L373.709 413.791C373.709 413.791 371.418 431.821 368.358 435.299C365.297 438.776 360.717 431.821 350.015 426.983C349.203 426.605 348.308 426.246 347.392 425.887L344.623 465.407C344.623 465.407 348.641 503.679 396.819 496.403C416.327 493.454 437.147 477.654 455.115 459.888C436.627 456.807 409.04 450.305 407.291 444.994Z" fill="white"/>
<mask id="mask3_281_296" style="mask-type:luminance" maskUnits="userSpaceOnUse" x="344" y="411" width="112" height="87">
<path d="M407.291 444.994C405.001 438.077 419.513 411.712 419.513 411.712L373.709 413.791C373.709 413.791 371.418 431.821 368.358 435.299C365.297 438.776 360.717 431.821 350.015 426.983C349.203 426.605 348.308 426.246 347.392 425.887L344.623 465.407C344.623 465.407 348.641 503.679 396.819 496.403C416.327 493.454 437.147 477.654 455.115 459.888C436.627 456.807 409.04 450.305 407.291 444.994Z" fill="white"/>
</mask>
<g mask="url(#mask3_281_296)">
<path d="M406 416.947C406 416.947 403.231 431.046 401.003 446.639C398.776 462.231 397.131 473.836 397.131 473.836L407.291 444.994L418.742 414.433C418.742 414.433 407.666 414.433 406 416.947Z" fill="#0072C6"/>
<path opacity="0.5" d="M406 416.947C406 416.947 403.231 431.046 401.003 446.639C398.776 462.231 397.131 473.836 397.131 473.836L407.291 444.994L418.742 414.433C418.742 414.433 407.666 414.433 406 416.947Z" fill="white"/>
</g>
<path d="M407.291 444.994C405.001 438.077 419.513 411.712 419.513 411.712L373.709 413.791C373.709 413.791 371.418 431.821 368.358 435.299C365.297 438.776 360.717 431.821 350.015 426.983C349.203 426.605 348.308 426.246 347.392 425.887L344.623 465.407C344.623 465.407 348.641 503.679 396.819 496.403C416.327 493.454 437.147 477.654 455.115 459.888C436.627 456.807 409.04 450.305 407.291 444.994Z" stroke="#263238" stroke-linecap="round" stroke-linejoin="round"/>
<path d="M368.337 435.299C365.277 438.758 360.696 431.821 349.995 426.983C343.249 423.902 332.506 421.105 323.616 418.081C321.097 412.657 317.765 405.588 315.621 401.317C311.811 393.757 305.69 398.538 305.69 398.538C302.496 395.241 299.916 391.494 298.049 387.444C294.239 379.884 288.118 380.508 279.727 379.128C271.337 377.748 253.744 363.176 253.744 363.176C253.744 363.176 245.52 357.506 242.126 354.69C238.17 361.759 228.697 374.195 208.21 381.963C240.877 412.94 307.147 471.795 314.101 476.217C321.742 481.056 319.452 494.928 314.101 508.801C308.75 522.674 288.888 542.821 289.658 564.972C290.429 587.123 297.986 621.143 297.299 628.079C296.612 634.259 281.372 653.632 278.062 657.79L285.827 658.583H326.26C326.031 639.986 326.052 564.083 340.064 533.843C356.116 499.086 368.337 435.299 368.337 435.299Z" fill="#0072C6"/>
<mask id="mask4_281_296" style="mask-type:luminance" maskUnits="userSpaceOnUse" x="208" y="354" width="161" height="305">
<path d="M368.337 435.299C365.277 438.758 360.696 431.821 349.995 426.983C343.249 423.902 332.506 421.105 323.616 418.081C321.097 412.657 317.765 405.588 315.621 401.317C311.811 393.757 305.69 398.538 305.69 398.538C302.496 395.241 299.916 391.494 298.049 387.444C294.239 379.884 288.118 380.508 279.727 379.128C271.337 377.748 253.744 363.176 253.744 363.176C253.744 363.176 245.52 357.506 242.126 354.69C238.17 361.759 228.697 374.195 208.21 381.963C240.877 412.94 307.147 471.795 314.101 476.217C321.742 481.056 319.452 494.928 314.101 508.801C308.75 522.674 288.888 542.821 289.658 564.972C290.429 587.123 297.986 621.143 297.299 628.079C296.612 634.259 281.372 653.632 278.062 657.79L285.827 658.583H326.26C326.031 639.986 326.052 564.083 340.064 533.843C356.116 499.086 368.337 435.299 368.337 435.299Z" fill="white"/>
</mask>
<g mask="url(#mask4_281_296)">
<path opacity="0.16" d="M349.995 426.983C343.249 423.902 332.506 421.105 323.616 418.081C321.097 412.657 317.765 405.588 315.621 401.317C311.811 393.757 305.69 398.538 305.69 398.538C302.496 395.241 299.916 391.494 298.049 387.444C294.239 379.884 288.118 380.508 279.727 379.128C271.337 377.748 253.744 363.176 253.744 363.176C253.744 363.176 245.52 357.506 242.126 354.69C240.433 357.692 238.418 360.534 236.109 363.176C249.767 373.666 264.841 384.779 270.108 386.99C280.518 391.356 282.954 387.709 290.928 392.093C298.902 396.478 307.793 410.993 307.793 410.993C307.793 410.993 312.623 399.313 316.641 407.346C320.659 415.378 330.299 429.213 330.299 429.213C330.299 429.213 343.145 435.771 346.351 435.771C348.87 435.771 361.217 441.592 366.463 444.106C367.629 438.568 368.275 435.242 368.275 435.242C365.277 438.758 360.696 431.821 349.995 426.983Z" fill="black"/>
</g>
<path d="M368.337 435.299C365.277 438.758 360.696 431.821 349.995 426.983C343.249 423.902 332.506 421.105 323.616 418.081C321.097 412.657 317.765 405.588 315.621 401.317C311.811 393.757 305.69 398.538 305.69 398.538C302.496 395.241 299.916 391.494 298.049 387.444C294.239 379.884 288.118 380.508 279.727 379.128C271.337 377.748 253.744 363.176 253.744 363.176C253.744 363.176 245.52 357.506 242.126 354.69C238.17 361.759 228.697 374.195 208.21 381.963C240.877 412.94 307.147 471.795 314.101 476.217C321.742 481.056 319.452 494.928 314.101 508.801C308.75 522.674 288.888 542.821 289.658 564.972C290.429 587.123 297.986 621.143 297.299 628.079C296.612 634.259 281.372 653.632 278.062 657.79L285.827 658.583H326.26C326.031 639.986 326.052 564.083 340.064 533.843C356.116 499.086 368.337 435.299 368.337 435.299Z" stroke="#263238" stroke-linecap="round" stroke-linejoin="round"/>
<path d="M368.878 432.88C368.878 432.88 359.384 430.234 353.534 434.883C347.683 439.532 338.96 463.384 333.817 489.258C330.648 504.321 332.835 519.908 340.063 533.768C340.063 533.768 352.076 505.172 355.72 491.243C359.363 477.314 368.878 432.88 368.878 432.88Z" fill="#0072C6"/>
<mask id="mask5_281_296" style="mask-type:luminance" maskUnits="userSpaceOnUse" x="332" y="432" width="37" height="102">
<path d="M368.878 432.88C368.878 432.88 359.384 430.234 353.534 434.883C347.683 439.532 338.96 463.384 333.817 489.258C330.648 504.321 332.835 519.908 340.063 533.768C340.063 533.768 352.076 505.172 355.72 491.243C359.363 477.314 368.878 432.88 368.878 432.88Z" fill="white"/>
</mask>
<g mask="url(#mask5_281_296)">
<path opacity="0.16" d="M350.661 437.094C350.661 437.094 357.531 435.582 360.363 436.452C362.747 437.38 364.976 438.608 366.984 440.099L368.878 432.88C366.036 431.561 362.813 431.079 359.655 431.5C354.929 432.369 350.661 437.094 350.661 437.094Z" fill="black"/>
</g>
<path d="M368.878 432.88C368.878 432.88 359.384 430.234 353.534 434.883C347.683 439.532 338.96 463.384 333.817 489.258C330.648 504.321 332.835 519.908 340.063 533.768C340.063 533.768 352.076 505.172 355.72 491.243C359.363 477.314 368.878 432.88 368.878 432.88Z" stroke="#263238" stroke-linecap="round" stroke-linejoin="round"/>
<path d="M304.94 435.148L317.161 480.224L289.658 423.354" stroke="#263238" stroke-linecap="round" stroke-linejoin="round"/>
<path d="M385.451 658.583H474.519C474.519 658.583 449.951 630.233 449.951 620.538C449.951 610.842 483.68 486.612 485.2 477.597C486.72 468.582 480.619 462.345 468.398 461.645C456.177 460.946 409.581 451.931 407.291 444.995C407.291 444.995 389.719 501.165 383.619 539.306C378.372 572.021 383.806 639.91 385.451 658.583Z" fill="#0072C6"/>
<mask id="mask6_281_296" style="mask-type:luminance" maskUnits="userSpaceOnUse" x="381" y="444" width="105" height="215">
<path d="M385.451 658.583H474.519C474.519 658.583 449.951 630.233 449.951 620.538C449.951 610.842 483.68 486.612 485.2 477.597C486.72 468.582 480.619 462.345 468.398 461.645C456.177 460.946 409.581 451.931 407.291 444.995C407.291 444.995 389.719 501.165 383.619 539.306C378.372 572.021 383.806 639.91 385.451 658.583Z" fill="white"/>
</mask>
<g mask="url(#mask6_281_296)">
<path opacity="0.16" d="M468.398 461.645C458.384 461.078 425.301 454.917 412.413 448.907L417.098 458.735C425.585 462.822 434.713 465.704 444.164 467.278C459.674 469.791 474.103 469.3 483.534 481.887L483.992 482.511C484.575 480.092 484.971 478.391 485.096 477.597C486.74 468.582 480.619 462.345 468.398 461.645Z" fill="black"/>
</g>
<path d="M385.451 658.583H474.519C474.519 658.583 449.951 630.233 449.951 620.538C449.951 610.842 483.68 486.612 485.2 477.597C486.72 468.582 480.619 462.345 468.398 461.645C456.177 460.946 409.581 451.931 407.291 444.995C407.291 444.995 389.719 501.165 383.619 539.306C378.372 572.021 383.806 639.91 385.451 658.583Z" stroke="#263238" stroke-linecap="round" stroke-linejoin="round"/>
<path d="M407.291 444.995C407.291 444.995 383.723 513.035 383.619 539.306C383.619 539.306 417.097 502.507 421.469 476.652C425.842 450.797 407.291 444.995 407.291 444.995Z" fill="#0072C6"/>
<mask id="mask7_281_296" style="mask-type:luminance" maskUnits="userSpaceOnUse" x="383" y="444" width="40" height="96">
<path d="M407.291 444.995C407.291 444.995 383.723 513.035 383.619 539.306C383.619 539.306 417.097 502.507 421.469 476.652C425.842 450.797 407.291 444.995 407.291 444.995Z" fill="white"/>
</mask>
<g mask="url(#mask7_281_296)">
<path opacity="0.16" d="M403.231 453.689C406.772 453.581 410.289 454.258 413.478 455.66C416.666 457.063 419.431 459.15 421.532 461.74C421.532 461.74 416.91 449.398 407.291 444.995L403.231 453.689Z" fill="black"/>
</g>
<path d="M407.291 444.995C407.291 444.995 383.723 513.035 383.619 539.306C383.619 539.306 417.097 502.507 421.469 476.652C425.842 450.797 407.291 444.995 407.291 444.995Z" stroke="#263238" stroke-linecap="round" stroke-linejoin="round"/>
<path d="M658.901 645.788C658.901 645.788 676.16 646.431 687.466 647.905C695.005 648.833 702.595 649.382 710.201 649.549C710.201 649.549 703.955 638.096 697.293 634.864C690.63 631.632 678.555 625.849 668.436 627.134C658.318 628.419 643.848 637.68 645.055 640.628C646.263 643.577 651.655 644.9 658.901 645.788Z" fill="white"/>
<mask id="mask8_281_296" style="mask-type:luminance" maskUnits="userSpaceOnUse" x="644" y="626" width="67" height="24">
<path d="M658.901 645.788C658.901 645.788 676.16 646.431 687.466 647.905C695.005 648.833 702.595 649.382 710.201 649.549C710.201 649.549 703.955 638.096 697.293 634.864C690.63 631.632 678.555 625.849 668.436 627.134C658.318 628.419 643.848 637.68 645.055 640.628C646.263 643.577 651.655 644.9 658.901 645.788Z" fill="white"/>
</mask>
<g mask="url(#mask8_281_296)">
<path d="M658.901 645.788C658.901 645.788 676.16 646.431 687.466 647.905C695.005 648.833 702.595 649.382 710.201 649.549C710.201 649.549 703.955 638.096 697.293 634.864C690.63 631.632 678.555 625.849 668.436 627.134C658.318 628.419 643.848 637.68 645.055 640.628C646.263 643.577 651.655 644.9 658.901 645.788Z" fill="#0072C6"/>
<path opacity="0.5" d="M658.901 645.788C658.901 645.788 676.16 646.431 687.466 647.905C695.005 648.833 702.595 649.382 710.201 649.549C710.201 649.549 703.955 638.096 697.293 634.864C690.63 631.632 678.555 625.849 668.436 627.134C658.318 628.419 643.848 637.68 645.055 640.628C646.263 643.577 651.655 644.9 658.901 645.788Z" fill="white"/>
</g>
<path d="M658.901 645.788C658.901 645.788 676.16 646.431 687.466 647.905C695.005 648.833 702.595 649.382 710.201 649.549C710.201 649.549 703.955 638.096 697.293 634.864C690.63 631.632 678.555 625.849 668.436 627.134C658.318 628.419 643.848 637.68 645.055 640.628C646.263 643.577 651.655 644.9 658.901 645.788Z" stroke="#263238" stroke-linecap="round" stroke-linejoin="round"/>
<path d="M687.57 641.101C687.57 641.101 701.249 634.656 704.663 634.751C708.078 634.845 730.771 648.774 729.647 651.004C728.884 652.039 727.781 652.829 726.496 653.263C725.211 653.697 723.807 653.753 722.485 653.424C719.966 652.346 704.684 646.45 704.684 646.45L694.69 648.585L687.57 641.101Z" fill="white"/>
<mask id="mask9_281_296" style="mask-type:luminance" maskUnits="userSpaceOnUse" x="687" y="634" width="43" height="20">
<path d="M687.57 641.101C687.57 641.101 701.249 634.656 704.663 634.751C708.078 634.845 730.771 648.774 729.647 651.004C728.884 652.039 727.781 652.829 726.496 653.263C725.211 653.697 723.807 653.753 722.485 653.424C719.966 652.346 704.684 646.45 704.684 646.45L694.69 648.585L687.57 641.101Z" fill="white"/>
</mask>
<g mask="url(#mask9_281_296)">
<path d="M687.57 641.101C687.57 641.101 701.249 634.656 704.663 634.751C708.078 634.845 730.771 648.774 729.647 651.004C728.523 653.235 723.151 655.049 722.485 653.424C721.819 651.798 704.684 646.45 704.684 646.45L694.69 648.585L687.57 641.101Z" fill="#0072C6"/>
<path opacity="0.5" d="M687.57 641.101C687.57 641.101 701.249 634.656 704.663 634.751C708.078 634.845 730.771 648.774 729.647 651.004C728.523 653.235 723.151 655.049 722.485 653.424C721.819 651.798 704.684 646.45 704.684 646.45L694.69 648.585L687.57 641.101Z" fill="white"/>
</g>
<path d="M687.57 641.101C687.57 641.101 701.249 634.656 704.663 634.751C708.078 634.845 730.771 648.774 729.647 651.004C728.884 652.039 727.781 652.829 726.496 653.263C725.211 653.697 723.807 653.753 722.485 653.424C719.966 652.346 704.684 646.45 704.684 646.45L694.69 648.585L687.57 641.101Z" stroke="#263238" stroke-linecap="round" stroke-linejoin="round"/>
<path d="M677.805 630.498C677.805 630.498 696.043 629.969 699.666 631.632C703.289 633.295 719.653 658.772 717.197 660.625C714.74 662.477 707.953 661.929 708.161 659.869C708.369 657.808 693.087 644.163 693.087 644.163L681.199 641.8L677.805 630.498Z" fill="white"/>
<mask id="mask10_281_296" style="mask-type:luminance" maskUnits="userSpaceOnUse" x="677" y="630" width="41" height="32">
<path d="M677.805 630.498C677.805 630.498 696.043 629.969 699.666 631.632C703.289 633.295 719.653 658.772 717.197 660.625C714.74 662.477 707.953 661.929 708.161 659.869C708.369 657.808 693.087 644.163 693.087 644.163L681.199 641.8L677.805 630.498Z" fill="white"/>
</mask>
<g mask="url(#mask10_281_296)">
<path d="M677.805 630.498C677.805 630.498 696.043 629.969 699.666 631.632C703.289 633.295 719.653 658.772 717.197 660.625C714.74 662.477 707.953 661.929 708.161 659.869C708.369 657.808 693.087 644.163 693.087 644.163L681.199 641.8L677.805 630.498Z" fill="#0072C6"/>
<path opacity="0.5" d="M677.805 630.498C677.805 630.498 696.043 629.969 699.666 631.632C703.289 633.295 719.653 658.772 717.197 660.625C714.74 662.477 707.953 661.929 708.161 659.869C708.369 657.808 693.087 644.163 693.087 644.163L681.199 641.8L677.805 630.498Z" fill="white"/>
</g>
<path d="M677.805 630.498C677.805 630.498 696.043 629.969 699.666 631.632C703.289 633.295 719.653 658.772 717.197 660.625C714.74 662.477 707.953 661.929 708.161 659.869C708.369 657.808 693.087 644.163 693.087 644.163L681.199 641.8L677.805 630.498Z" stroke="#263238" stroke-linecap="round" stroke-linejoin="round"/>
<path d="M667 627.077C667 627.077 685.467 626.529 689.132 628.23C692.796 629.931 709.369 655.692 706.87 657.582C704.372 659.472 697.543 658.886 697.751 656.807C697.959 654.728 682.49 640.912 682.49 640.912L670.456 638.512L667 627.077Z" fill="white"/>
<mask id="mask11_281_296" style="mask-type:luminance" maskUnits="userSpaceOnUse" x="667" y="626" width="41" height="33">
<path d="M667 627.077C667 627.077 685.467 626.529 689.132 628.23C692.796 629.931 709.369 655.692 706.87 657.582C704.372 659.472 697.543 658.886 697.751 656.807C697.959 654.728 682.49 640.912 682.49 640.912L670.456 638.512L667 627.077Z" fill="white"/>
</mask>
<g mask="url(#mask11_281_296)">
<path d="M667 627.077C667 627.077 685.467 626.529 689.132 628.23C692.796 629.931 709.369 655.692 706.87 657.582C704.372 659.472 697.543 658.886 697.751 656.807C697.959 654.728 682.49 640.912 682.49 640.912L670.456 638.512L667 627.077Z" fill="#0072C6"/>
<path opacity="0.5" d="M667 627.077C667 627.077 685.467 626.529 689.132 628.23C692.796 629.931 709.369 655.692 706.87 657.582C704.372 659.472 697.543 658.886 697.751 656.807C697.959 654.728 682.49 640.912 682.49 640.912L670.456 638.512L667 627.077Z" fill="white"/>
</g>
<path d="M667 627.077C667 627.077 685.467 626.529 689.132 628.23C692.796 629.931 709.369 655.692 706.87 657.582C704.372 659.472 697.543 658.886 697.751 656.807C697.959 654.728 682.49 640.912 682.49 640.912L670.456 638.512L667 627.077Z" stroke="#263238" stroke-linecap="round" stroke-linejoin="round"/>
<path d="M457.03 531.027C470.396 549.719 497.233 597.083 505.062 602.413C517.283 610.729 598.981 630.914 606.851 636.433C614.721 641.951 614.179 647.489 621.633 649.511C629.086 651.534 657.027 657.336 667.687 658.243C678.347 659.15 673.579 653.159 673.579 653.159L655.403 641.819L671.247 638.266C671.247 638.266 687.133 655.616 690.11 656.561C693.087 657.506 698.334 656.561 698.001 654.425C697.418 651.004 680.47 623.014 674.453 621.823C668.436 620.632 631.918 625.225 631.918 625.225C631.918 625.225 555.321 578.334 553.947 576.671C553.947 576.671 549.367 564.877 545.619 560.02C541.872 555.163 539.498 556.561 539.498 556.561C539.498 556.561 541.039 550.305 538.748 548.226L526.527 537.132L526.09 537.661C524.008 533.881 521.926 529.572 519.636 524.658C513.244 510.993 490.613 472.645 486.803 467.107C483.95 462.968 460.049 460.001 447.932 458.754" fill="#0072C6"/>
<mask id="mask12_281_296" style="mask-type:luminance" maskUnits="userSpaceOnUse" x="447" y="458" width="252" height="201">
<path d="M457.03 531.027C470.396 549.719 497.233 597.083 505.062 602.413C517.283 610.729 598.981 630.914 606.851 636.433C614.721 641.951 614.179 647.489 621.633 649.511C629.086 651.534 657.027 657.336 667.687 658.243C678.347 659.15 673.579 653.159 673.579 653.159L655.403 641.819L671.247 638.266C671.247 638.266 687.133 655.616 690.11 656.561C693.087 657.506 698.334 656.561 698.001 654.425C697.418 651.004 680.47 623.014 674.453 621.823C668.436 620.632 631.918 625.225 631.918 625.225C631.918 625.225 555.321 578.334 553.947 576.671C553.947 576.671 549.367 564.877 545.619 560.02C541.872 555.163 539.498 556.561 539.498 556.561C539.498 556.561 541.039 550.305 538.748 548.226L526.527 537.132L526.09 537.661C524.008 533.881 521.926 529.572 519.636 524.658C513.244 510.993 490.613 472.645 486.803 467.107C483.95 462.968 460.049 460.001 447.932 458.754" fill="white"/>
</mask>
<g mask="url(#mask12_281_296)">
<path opacity="0.16" d="M510.246 532.218C520.239 540.269 516.908 540.269 514.681 547.338C512.453 554.407 516.346 544.824 525.778 545.335C535.209 545.845 532.44 556.901 531.316 558.924C530.191 560.946 542.975 563.46 540.747 567.977C538.519 572.494 525.778 579.052 518.574 585.611C511.37 592.169 537.416 575.026 546.285 574.535C548.992 574.365 551.22 574.686 553.093 574.648C551.128 569.591 548.603 564.728 545.557 560.133C541.726 555.276 539.436 556.675 539.436 556.675C539.436 556.675 540.976 550.419 538.686 548.34L526.465 537.245L526.027 537.775C523.945 533.995 521.863 529.685 519.573 524.771C513.181 511.107 490.55 472.759 486.74 467.221C483.888 463.082 459.986 460.115 447.869 458.867L448.973 467.618L449.243 467.807C449.243 467.807 464.213 470.321 469.21 470.831C474.206 471.341 480.307 475.348 479.745 478.391C479.182 481.434 464.775 495.004 469.21 496.024C473.644 497.045 478.641 485.951 483.638 487.463C488.635 488.975 500.19 524.167 510.246 532.218Z" fill="black"/>
</g>
<path d="M457.03 531.027C470.396 549.719 497.233 597.083 505.062 602.413C517.283 610.729 598.981 630.914 606.851 636.433C614.721 641.951 614.179 647.489 621.633 649.511C629.086 651.534 657.027 657.336 667.687 658.243C678.347 659.15 673.579 653.159 673.579 653.159L655.403 641.819L671.247 638.266C671.247 638.266 687.133 655.616 690.11 656.561C693.087 657.506 698.334 656.561 698.001 654.425C697.418 651.004 680.47 623.014 674.453 621.823C668.436 620.632 631.918 625.225 631.918 625.225C631.918 625.225 555.321 578.334 553.947 576.671C553.947 576.671 549.367 564.877 545.619 560.02C541.872 555.163 539.498 556.561 539.498 556.561C539.498 556.561 541.039 550.305 538.748 548.226L526.527 537.132L526.09 537.661C524.008 533.881 521.926 529.572 519.636 524.658C513.244 510.993 490.613 472.645 486.803 467.107C483.95 462.968 460.049 460.001 447.932 458.754" stroke="#263238" stroke-linecap="round" stroke-linejoin="round"/>
<path d="M457.238 505.38C456.676 507.081 456.198 508.782 455.823 510.521" stroke="#263238" stroke-linecap="round" stroke-linejoin="round"/>
<path d="M477.476 474.101C470.933 480.87 465.416 488.402 461.069 496.497" stroke="#263238" stroke-linecap="round" stroke-linejoin="round"/>
<path d="M508.06 581.415C513.681 573.855 522.634 564.272 532.503 561.532" stroke="#263238" stroke-linecap="round" stroke-linejoin="round"/>
<path d="M501.835 590.713C501.835 590.713 502.834 588.937 504.625 586.253" stroke="#263238" stroke-linecap="round" stroke-linejoin="round"/>
<path d="M501.835 578.769C501.835 578.769 512.058 555.56 522.28 549.587C532.503 543.615 526.652 555.559 526.652 555.559" stroke="#263238" stroke-linecap="round" stroke-linejoin="round"/>
<path d="M606.851 636.452C614.742 641.989 614.179 647.508 621.633 649.53C629.086 651.553 657.027 657.355 667.687 658.262C678.347 659.169 673.579 653.178 673.579 653.178L655.403 641.838L671.247 638.285C671.247 638.285 687.133 655.635 690.11 656.58C693.087 657.525 698.75 657.865 698.001 654.444C696.543 647.829 680.47 623.032 674.453 621.842C668.436 620.651 631.918 625.244 631.918 625.244C631.918 625.244 562.15 581.774 554.509 577.068C524.882 579.657 510.787 593.738 504.854 602.186L505.062 602.337C517.283 610.729 598.981 630.914 606.851 636.452Z" fill="white"/>
<mask id="mask13_281_296" style="mask-type:luminance" maskUnits="userSpaceOnUse" x="504" y="577" width="195" height="82">
<path d="M606.851 636.452C614.742 641.989 614.179 647.508 621.633 649.53C629.086 651.553 657.027 657.355 667.687 658.262C678.347 659.169 673.579 653.178 673.579 653.178L655.403 641.838L671.247 638.285C671.247 638.285 687.133 655.635 690.11 656.58C693.087 657.525 698.75 657.865 698.001 654.444C696.543 647.829 680.47 623.032 674.453 621.842C668.436 620.651 631.918 625.244 631.918 625.244C631.918 625.244 562.15 581.774 554.509 577.068C524.882 579.657 510.787 593.738 504.854 602.186L505.062 602.337C517.283 610.729 598.981 630.914 606.851 636.452Z" fill="white"/>
</mask>
<g mask="url(#mask13_281_296)">
<path d="M697.98 654.52C694.19 646.109 680.449 623.108 674.432 621.917C668.415 620.727 631.897 625.319 631.897 625.319C631.897 625.319 562.129 581.849 554.488 577.143C546.712 577.757 539.082 579.433 531.857 582.114C542.871 587.784 616.282 625.584 625.547 627.266C635.374 629.156 668.166 624.261 673.933 627.776C677.597 630.007 688.507 645.712 695.877 656.863C697.98 656.58 698.75 656.221 697.98 654.52Z" fill="#0072C6"/>
<path opacity="0.5" d="M697.98 654.52C692.067 642.481 680.449 623.108 674.432 621.917C668.415 620.727 631.897 625.319 631.897 625.319C631.897 625.319 562.129 581.849 554.488 577.143C546.712 577.757 539.082 579.433 531.857 582.114C542.871 587.784 616.282 625.584 625.547 627.266C635.374 629.156 668.166 624.261 673.933 627.776C677.597 630.007 688.507 645.712 695.877 656.863C697.98 656.58 698.813 656.202 697.98 654.52Z" fill="white"/>
</g>
<path d="M606.851 636.452C614.742 641.989 614.179 647.508 621.633 649.53C629.086 651.553 657.027 657.355 667.687 658.262C678.347 659.169 673.579 653.178 673.579 653.178L655.403 641.838L671.247 638.285C671.247 638.285 687.133 655.635 690.11 656.58C693.087 657.525 698.75 657.865 698.001 654.444C696.543 647.829 680.47 623.032 674.453 621.842C668.436 620.651 631.918 625.244 631.918 625.244C631.918 625.244 562.15 581.774 554.509 577.068C524.882 579.657 510.787 593.738 504.854 602.186L505.062 602.337C517.283 610.729 598.981 630.914 606.851 636.452Z" stroke="#263238" stroke-linecap="round" stroke-linejoin="round"/>
<path d="M422.844 306.42L360.134 330.177C359.374 340.182 356.645 349.982 352.077 359.113C344.665 373.345 348.995 400.277 356.116 414.811C363.236 429.345 394.612 423.656 406.084 421.842C413.864 420.498 421.485 418.479 428.84 415.813C432.189 416.985 435.811 417.363 439.366 416.914C442.921 416.464 446.292 415.201 449.16 413.242C449.16 413.242 415.598 327.72 422.844 306.42Z" fill="white"/>
<mask id="mask14_281_296" style="mask-type:luminance" maskUnits="userSpaceOnUse" x="348" y="306" width="102" height="119">
<path d="M422.844 306.42L360.134 330.177C359.374 340.182 356.645 349.982 352.077 359.113C344.665 373.345 348.995 400.277 356.116 414.811C363.236 429.345 394.612 423.656 406.084 421.842C413.864 420.498 421.485 418.479 428.84 415.813C432.189 416.985 435.811 417.363 439.366 416.914C442.921 416.464 446.292 415.201 449.16 413.242C449.16 413.242 415.598 327.72 422.844 306.42Z" fill="white"/>
</mask>
<g mask="url(#mask14_281_296)">
<path d="M422.844 306.42L360.134 330.177C359.374 340.182 356.645 349.982 352.077 359.113C344.665 373.345 348.995 400.277 356.116 414.811C357.308 417.148 359.225 419.119 361.633 420.481V419.385C361.633 419.385 349.995 393.208 352.201 378.107C354.408 363.006 363.861 355.427 364.964 345.883C366.068 336.338 365.505 331.802 386.596 324.753C407.687 317.703 416.535 311.164 418.742 318.194C420.949 325.225 429.839 371.568 435.94 382.643C442.04 393.719 441.478 405.323 432.067 410.332C422.556 415.515 412.364 419.592 401.732 422.466L406.167 421.766C413.948 420.423 421.568 418.404 428.923 415.737C432.272 416.909 435.895 417.288 439.45 416.838C443.005 416.389 446.375 415.125 449.244 413.167C449.244 413.167 415.598 327.72 422.844 306.42Z" fill="#0072C6"/>
<path opacity="0.5" d="M422.844 306.42L360.134 330.177C359.374 340.182 356.645 349.982 352.077 359.113C344.665 373.345 348.995 400.277 356.116 414.811C357.308 417.148 359.225 419.119 361.633 420.481V419.385C361.633 419.385 349.995 393.208 352.201 378.107C354.408 363.006 363.861 355.427 364.964 345.883C366.068 336.338 365.505 331.802 386.596 324.753C407.687 317.703 416.535 311.164 418.742 318.194C420.949 325.225 429.839 371.568 435.94 382.643C442.04 393.719 441.478 405.323 432.067 410.332C422.556 415.515 412.364 419.592 401.732 422.466L406.167 421.766C413.948 420.423 421.568 418.404 428.923 415.737C432.272 416.909 435.895 417.288 439.45 416.838C443.005 416.389 446.375 415.125 449.244 413.167C449.244 413.167 415.598 327.72 422.844 306.42Z" fill="white"/>
</g>
<path d="M422.844 306.42L360.134 330.177C359.374 340.182 356.645 349.982 352.077 359.113C344.665 373.345 348.995 400.277 356.116 414.811C363.236 429.345 394.612 423.656 406.084 421.842C413.864 420.498 421.485 418.479 428.84 415.813C432.189 416.985 435.811 417.363 439.366 416.914C442.921 416.464 446.292 415.201 449.16 413.242C449.16 413.242 415.598 327.72 422.844 306.42Z" stroke="#263238" stroke-linecap="round" stroke-linejoin="round"/>
<path d="M391.156 343.672C391.326 347.019 390.868 350.367 389.802 353.575C388.137 357.355 372.418 372.211 372.896 373.817C373.375 375.424 374.791 380.583 377.581 381.075" stroke="#263238" stroke-linecap="round" stroke-linejoin="round"/>
<path d="M408.582 356.958C410.768 352.989 417.951 356.864 417.847 365.803" stroke="#263238" stroke-linecap="round" stroke-linejoin="round"/>
<path d="M372.98 345.278C372.98 345.278 379.101 342.84 384.577 351.836" stroke="#263238" stroke-linecap="round" stroke-linejoin="round"/>
<path d="M399.879 370.056C406.953 370.379 413.678 372.94 418.888 377.295" stroke="#263238" stroke-width="0.5" stroke-linecap="round" stroke-linejoin="round"/>
<path d="M365.589 358.243C369.246 358.687 372.819 359.583 376.207 360.908" stroke="#263238" stroke-width="0.5" stroke-linecap="round" stroke-linejoin="round"/>
<path d="M390.469 335.28C388.852 334.504 387.059 334.08 385.23 334.04C383.402 334.001 381.589 334.348 379.934 335.053C374.333 337.491 370.898 340.175 371.272 337.057C371.647 333.938 378.226 330.498 380.204 330.045C382.182 329.591 391.031 328.344 390.469 335.28Z" fill="#263238"/>
<path d="M406.167 328.23C412.004 332.517 416.641 337.996 419.7 344.22C423.864 353.67 427.154 343.35 423.864 337.17C420.574 330.99 411.06 324.412 406.167 328.23Z" fill="#263238"/>
<path d="M450.076 429.402C450.076 433.806 447.328 437.378 443.955 437.378C440.582 437.378 437.855 433.806 437.855 429.402C437.855 424.998 440.582 413.791 443.955 413.791C447.328 413.791 450.076 424.998 450.076 429.402Z" fill="#0072C6" stroke="#263238" stroke-linecap="round" stroke-linejoin="round"/>
<path d="M409.123 355.238C408.884 355.816 408.696 356.41 408.561 357.015C407.957 359.812 407.353 365.652 408.561 365.898C409.769 366.144 412.725 360.682 413.245 357.884C413.363 357.336 413.432 356.78 413.454 356.221C412.033 355.817 410.587 355.489 409.123 355.238Z" fill="#263238"/>
<path d="M373.604 344.73C373.419 345.224 373.273 345.729 373.167 346.242C372.542 349.039 372.563 355.182 373.875 355.408C375.187 355.635 377.331 349.89 377.935 347.093C378.085 346.414 378.169 345.725 378.185 345.032C376.694 344.66 375.138 344.558 373.604 344.73Z" fill="#263238"/>
<path d="M408.582 357.053L410.664 353.537C413.965 354.121 416.955 355.691 419.159 357.998" stroke="#263238" stroke-width="0.75" stroke-linecap="round" stroke-linejoin="round"/>
<path d="M373.604 344.73L375.686 342.519C375.686 342.519 376.582 342.122 381.495 344.144" stroke="#263238" stroke-width="0.75" stroke-linecap="round" stroke-linejoin="round"/>
<path d="M365.713 395.987C365.713 395.987 369.211 390.147 373.896 390.147C378.58 390.147 382.078 399.691 382.078 399.691" stroke="#263238" stroke-linecap="round" stroke-linejoin="round"/>
<path d="M214.956 647.848C210.429 647.644 205.982 646.683 201.839 645.013C201.262 644.819 200.733 644.521 200.287 644.136C199.84 643.751 199.485 643.287 199.242 642.773C198.999 642.259 198.874 641.706 198.875 641.147C198.875 640.588 199 640.035 199.244 639.521C199.487 639.008 199.843 638.544 200.29 638.16C200.737 637.775 201.265 637.477 201.843 637.283C202.421 637.09 203.036 637.005 203.651 637.034C204.266 637.063 204.868 637.206 205.42 637.453C209.584 639.06 214.977 640.061 216.413 639.494C219.057 636.811 223.117 620.594 217.871 612.77C216.684 611.031 215.58 610.71 214.852 610.634C211.874 610.256 207.461 613.034 205.899 614.414C205.464 614.786 204.953 615.077 204.395 615.27C203.836 615.463 203.241 615.554 202.644 615.539C202.046 615.523 201.458 615.4 200.913 615.178C200.368 614.956 199.876 614.639 199.466 614.244C199.056 613.849 198.735 613.385 198.523 612.878C198.31 612.371 198.21 611.831 198.227 611.289C198.244 610.746 198.379 610.213 198.624 609.718C198.869 609.223 199.218 608.776 199.653 608.404C200.465 607.686 207.981 601.543 215.997 602.526C217.985 602.79 219.879 603.465 221.533 604.501C223.187 605.537 224.555 606.905 225.532 608.498C233.257 619.933 227.968 641.687 222.035 645.996C219.973 647.32 217.478 647.973 214.956 647.848Z" fill="white"/>
<mask id="mask15_281_296" style="mask-type:luminance" maskUnits="userSpaceOnUse" x="198" y="602" width="32" height="46">
<path d="M214.956 647.848C210.429 647.644 205.982 646.683 201.839 645.013C201.262 644.819 200.733 644.521 200.287 644.136C199.84 643.751 199.485 643.287 199.242 642.773C198.999 642.259 198.874 641.706 198.875 641.147C198.875 640.588 199 640.035 199.244 639.521C199.487 639.008 199.843 638.544 200.29 638.16C200.737 637.775 201.265 637.477 201.843 637.283C202.421 637.09 203.036 637.005 203.651 637.034C204.266 637.063 204.868 637.206 205.42 637.453C209.584 639.06 214.977 640.061 216.413 639.494C219.057 636.811 223.117 620.594 217.871 612.77C216.684 611.031 215.58 610.71 214.852 610.634C211.874 610.256 207.461 613.034 205.899 614.414C205.464 614.786 204.953 615.077 204.395 615.27C203.836 615.463 203.241 615.554 202.644 615.539C202.046 615.523 201.458 615.4 200.913 615.178C200.368 614.956 199.876 614.639 199.466 614.244C199.056 613.849 198.735 613.385 198.523 612.878C198.31 612.371 198.21 611.831 198.227 611.289C198.244 610.746 198.379 610.213 198.624 609.718C198.869 609.223 199.218 608.776 199.653 608.404C200.465 607.686 207.981 601.543 215.997 602.526C217.985 602.79 219.879 603.465 221.533 604.501C223.187 605.537 224.555 606.905 225.532 608.498C233.257 619.933 227.968 641.687 222.035 645.996C219.973 647.32 217.478 647.973 214.956 647.848Z" fill="white"/>
</mask>
<g mask="url(#mask15_281_296)">
<path d="M221.056 611.522C220.51 610.348 219.655 609.314 218.566 608.51C217.477 607.706 216.187 607.157 214.81 606.911C209.605 606.155 204.713 610.899 204.171 611.428C203.674 611.972 203.366 612.639 203.288 613.342C203.21 614.046 203.365 614.755 203.734 615.378C204.553 615.229 205.31 614.875 205.92 614.357C207.482 613.034 211.895 610.256 214.873 610.577C215.601 610.577 216.705 610.974 217.892 612.713C223.138 620.462 219.078 636.754 216.434 639.438C214.998 640.005 209.626 639.003 205.441 637.396C204.926 637.2 204.376 637.091 203.817 637.075C203.855 637.593 204.035 638.094 204.34 638.533C204.646 638.972 205.067 639.335 205.566 639.589C208.199 640.865 211.103 641.613 214.081 641.781C215.781 641.855 217.446 641.327 218.724 640.307C222.639 637.037 226.095 620.311 221.056 611.522Z" fill="#0072C6"/>
<path opacity="0.5" d="M221.056 611.522C220.51 610.348 219.655 609.314 218.566 608.51C217.477 607.706 216.187 607.157 214.81 606.911C209.605 606.155 204.713 610.899 204.171 611.428C203.674 611.972 203.366 612.639 203.288 613.342C203.21 614.046 203.365 614.755 203.734 615.378C204.553 615.229 205.31 614.875 205.92 614.357C207.482 613.034 211.895 610.256 214.873 610.577C215.601 610.577 216.705 610.974 217.892 612.713C223.138 620.462 219.078 636.754 216.434 639.438C214.998 640.005 209.626 639.003 205.441 637.396C204.926 637.2 204.376 637.091 203.817 637.075C203.855 637.593 204.035 638.094 204.34 638.533C204.646 638.972 205.067 639.335 205.566 639.589C208.199 640.865 211.103 641.613 214.081 641.781C215.781 641.855 217.446 641.327 218.724 640.307C222.639 637.037 226.095 620.311 221.056 611.522Z" fill="white"/>
</g>
<path d="M214.956 647.848C210.429 647.644 205.982 646.683 201.839 645.013C201.262 644.819 200.733 644.521 200.287 644.136C199.84 643.751 199.485 643.287 199.242 642.773C198.999 642.259 198.874 641.706 198.875 641.147C198.875 640.588 199 640.035 199.244 639.521C199.487 639.008 199.843 638.544 200.29 638.16C200.737 637.775 201.265 637.477 201.843 637.283C202.421 637.09 203.036 637.005 203.651 637.034C204.266 637.063 204.868 637.206 205.42 637.453C209.584 639.06 214.977 640.061 216.413 639.494C219.057 636.811 223.117 620.594 217.871 612.77C216.684 611.031 215.58 610.71 214.852 610.634C211.874 610.256 207.461 613.034 205.899 614.414C205.464 614.786 204.953 615.077 204.395 615.27C203.836 615.463 203.241 615.554 202.644 615.539C202.046 615.523 201.458 615.4 200.913 615.178C200.368 614.956 199.876 614.639 199.466 614.244C199.056 613.849 198.735 613.385 198.523 612.878C198.31 612.371 198.21 611.831 198.227 611.289C198.244 610.746 198.379 610.213 198.624 609.718C198.869 609.223 199.218 608.776 199.653 608.404C200.465 607.686 207.981 601.543 215.997 602.526C217.985 602.79 219.879 603.465 221.533 604.501C223.187 605.537 224.555 606.905 225.532 608.498C233.257 619.933 227.968 641.687 222.035 645.996C219.973 647.32 217.478 647.973 214.956 647.848Z" stroke="#263238" stroke-linecap="round" stroke-linejoin="round"/>
<path d="M207.003 599.086H156.931V659.415H207.003V599.086Z" fill="white"/>
<mask id="mask16_281_296" style="mask-type:luminance" maskUnits="userSpaceOnUse" x="156" y="599" width="52" height="61">
<path d="M207.003 599.086H156.931V659.415H207.003V599.086Z" fill="white"/>
</mask>
<g mask="url(#mask16_281_296)">
<path d="M177.438 599.086H156.931V659.415H177.438V599.086Z" fill="#0072C6"/>
<path opacity="0.5" d="M177.438 599.086H156.931V659.415H177.438V599.086Z" fill="white"/>
</g>
<path d="M207.003 599.086H156.931V659.415H207.003V599.086Z" stroke="#263238" stroke-linecap="round" stroke-linejoin="round"/>
<path d="M482.16 658.583H268.255L261.28 551.836C261.088 550.801 261.144 549.741 261.447 548.727C261.749 547.714 262.291 546.773 263.033 545.968C263.775 545.163 264.701 544.514 265.746 544.065C266.791 543.616 267.932 543.379 269.088 543.369H481.244C482.407 543.368 483.557 543.597 484.612 544.041C485.668 544.485 486.604 545.133 487.355 545.939C488.106 546.745 488.655 547.691 488.962 548.709C489.27 549.728 489.328 550.795 489.134 551.836L482.16 658.583Z" fill="#263238" stroke="#263238" stroke-linecap="round" stroke-linejoin="round"/>
<path d="M278.79 545.921H479.703C480.838 545.91 481.962 546.125 482.996 546.55C484.03 546.975 484.949 547.6 485.688 548.381C486.428 549.163 486.971 550.082 487.279 551.073C487.586 552.065 487.651 553.106 487.469 554.123" stroke="white" stroke-linecap="round" stroke-linejoin="round"/>
<path d="M262.842 552.441C263.009 550.655 263.913 548.991 265.371 547.783C266.83 546.574 268.737 545.909 270.712 545.921" stroke="white" stroke-linecap="round" stroke-linejoin="round"/>
<path d="M483.055 648.188H267.36V658.583H483.055V648.188Z" fill="white" stroke="#263238" stroke-linecap="round" stroke-linejoin="round"/>
<path d="M374.437 609.708C382.877 609.708 389.719 605.985 389.719 601.392C389.719 596.799 382.877 593.076 374.437 593.076C365.997 593.076 359.155 596.799 359.155 601.392C359.155 605.985 365.997 609.708 374.437 609.708Z" fill="white" stroke="#263238" stroke-linecap="round" stroke-linejoin="round"/>
<path d="M808.388 657.355H5.02783V675.064H808.388V657.355Z" fill="#263238"/>
<path d="M600.084 0.75H213.603C200.575 0.75 190.014 10.3372 190.014 22.1637V223.468C190.014 235.294 200.575 244.881 213.603 244.881H600.084C613.112 244.881 623.673 235.294 623.673 223.468V22.1637C623.673 10.3372 613.112 0.75 600.084 0.75Z" fill="#0072C6"/>
<path d="M417.042 141.045C452.1 135.93 475.952 105.985 470.318 74.1604C464.684 42.3357 431.697 20.6829 396.639 25.7974C361.581 30.912 337.729 60.8573 343.363 92.682C348.997 124.507 381.984 146.16 417.042 141.045Z" fill="#263238"/>
<path d="M406.354 94.2105L384.931 119.177C384.202 120.217 383.2 121.075 382.016 121.676C380.831 122.276 379.5 122.6 378.143 122.617C376.282 122.64 374.486 121.995 373.146 120.822C372.465 120.255 371.927 119.561 371.568 118.788C371.208 118.015 371.037 117.181 371.064 116.342C371.132 114.464 371.861 112.656 373.146 111.183L397.568 83.7588L374.666 56.316C373.602 55.0281 373.019 53.4655 373.001 51.8556C372.995 50.8955 373.209 49.9447 373.628 49.0632C374.047 48.1817 374.663 47.3886 375.437 46.7337C376.163 46.0452 377.036 45.4976 378.002 45.124C378.968 44.7504 380.008 44.5586 381.058 44.5602C382.403 44.58 383.721 44.9051 384.892 45.506C386.063 46.1068 387.05 46.9642 387.762 48L408.457 72.7401L429.277 48.4158C430.021 47.281 431.062 46.3303 432.308 45.6479C433.554 44.9655 434.965 44.5724 436.418 44.5035C437.32 44.5015 438.213 44.6683 439.04 44.9934C439.868 45.3186 440.612 45.7952 441.228 46.3935C441.884 46.9543 442.407 47.6308 442.765 48.3815C443.123 49.1322 443.308 49.9414 443.31 50.7594C443.288 52.2233 442.731 53.6391 441.728 54.7851L417.222 83.2485L440.895 111.598C442.014 112.866 442.636 114.435 442.664 116.059C442.671 116.998 442.453 117.927 442.025 118.782C441.598 119.637 440.97 120.397 440.187 121.011C438.659 122.344 436.622 123.089 434.503 123.09C433.151 123.074 431.826 122.752 430.647 122.151C429.468 121.55 428.475 120.69 427.757 119.65L406.354 94.2105Z" fill="white"/>
<path d="M529.338 202.602H284.266C279.296 202.602 274.53 200.81 271.016 197.62C267.502 194.43 265.528 190.103 265.528 185.592C265.528 181.081 267.502 176.754 271.016 173.564C274.53 170.374 279.296 168.582 284.266 168.582H529.338C534.308 168.582 539.074 170.374 542.588 173.564C546.102 176.754 548.076 181.081 548.076 185.592C548.076 190.103 546.102 194.43 542.588 197.62C539.074 200.81 534.308 202.602 529.338 202.602Z" fill="white"/>
<path d="M317.849 191.073C317.685 191.073 317.523 191.043 317.373 190.984C317.223 190.926 317.087 190.84 316.974 190.733C316.851 190.622 316.754 190.489 316.69 190.343C316.625 190.196 316.595 190.04 316.599 189.882C316.599 189.616 316.678 189.355 316.828 189.126L318.702 186.48H314.871C314.694 186.489 314.517 186.462 314.352 186.404C314.187 186.345 314.038 186.255 313.914 186.14C313.7 185.914 313.582 185.626 313.582 185.327C313.582 185.029 313.7 184.741 313.914 184.515C314.038 184.4 314.187 184.31 314.352 184.251C314.517 184.192 314.694 184.166 314.871 184.174L318.64 184.269L316.974 181.812C316.807 181.56 316.714 181.274 316.704 180.98C316.699 180.823 316.729 180.666 316.794 180.52C316.858 180.374 316.955 180.241 317.078 180.13C317.195 180.022 317.334 179.936 317.488 179.878C317.642 179.819 317.807 179.789 317.974 179.79C318.207 179.787 318.436 179.846 318.632 179.96C318.828 180.074 318.983 180.239 319.077 180.432L320.909 183.4L322.658 180.565C322.768 180.344 322.943 180.155 323.163 180.018C323.384 179.882 323.641 179.803 323.907 179.79C324.071 179.79 324.233 179.82 324.383 179.878C324.533 179.937 324.669 180.022 324.782 180.13C324.904 180.234 325 180.36 325.065 180.5C325.129 180.64 325.161 180.791 325.156 180.943C325.154 181.211 325.067 181.473 324.907 181.699L323.074 184.363L326.885 184.269C327.062 184.259 327.239 184.285 327.405 184.344C327.57 184.402 327.719 184.493 327.842 184.609C328.056 184.835 328.174 185.124 328.174 185.422C328.174 185.72 328.056 186.008 327.842 186.235C327.719 186.351 327.57 186.441 327.405 186.5C327.239 186.559 327.062 186.584 326.885 186.575H323.033L324.74 188.994C324.933 189.286 325.04 189.618 325.052 189.958C325.058 190.111 325.03 190.264 324.969 190.407C324.908 190.55 324.816 190.68 324.698 190.789C324.589 190.896 324.457 190.98 324.31 191.039C324.163 191.097 324.005 191.128 323.845 191.13C323.587 191.124 323.337 191.052 323.123 190.921C322.909 190.79 322.74 190.607 322.637 190.393L320.909 187.614L319.181 190.393C319.056 190.611 318.863 190.792 318.627 190.913C318.39 191.034 318.12 191.09 317.849 191.073Z" fill="black"/>
<path d="M336.961 191.073C336.798 191.073 336.636 191.043 336.486 190.984C336.335 190.926 336.2 190.84 336.087 190.733C335.964 190.622 335.867 190.489 335.803 190.343C335.738 190.197 335.707 190.04 335.712 189.882C335.712 189.616 335.791 189.355 335.941 189.126L337.815 186.48H333.984C333.807 186.489 333.63 186.462 333.465 186.404C333.3 186.345 333.15 186.255 333.026 186.14C332.812 185.914 332.695 185.626 332.695 185.327C332.695 185.029 332.812 184.741 333.026 184.515C333.15 184.4 333.3 184.31 333.465 184.251C333.63 184.192 333.807 184.166 333.984 184.175L337.753 184.269L335.983 181.718C335.816 181.466 335.723 181.18 335.712 180.886C335.707 180.728 335.738 180.572 335.803 180.425C335.867 180.279 335.964 180.146 336.087 180.035C336.204 179.927 336.343 179.842 336.497 179.783C336.651 179.725 336.816 179.695 336.982 179.695C337.215 179.692 337.444 179.751 337.641 179.866C337.837 179.98 337.992 180.144 338.086 180.338L339.918 183.305L341.667 180.47C341.777 180.25 341.952 180.061 342.172 179.924C342.392 179.787 342.65 179.708 342.916 179.695C343.08 179.695 343.241 179.725 343.392 179.784C343.542 179.842 343.678 179.928 343.79 180.035C343.912 180.139 344.009 180.265 344.073 180.405C344.138 180.545 344.169 180.696 344.165 180.848C344.162 181.116 344.076 181.379 343.915 181.604L342.083 184.269L345.893 184.175C346.07 184.165 346.248 184.19 346.413 184.249C346.579 184.308 346.728 184.399 346.851 184.515C347.065 184.741 347.183 185.029 347.183 185.327C347.183 185.626 347.065 185.914 346.851 186.14C346.728 186.256 346.579 186.347 346.413 186.406C346.248 186.464 346.07 186.49 345.893 186.48H342.042L343.749 188.9C343.941 189.192 344.049 189.523 344.061 189.863C344.067 190.017 344.039 190.169 343.978 190.312C343.917 190.455 343.825 190.585 343.707 190.695C343.598 190.801 343.465 190.886 343.319 190.944C343.172 191.003 343.014 191.034 342.854 191.035C342.595 191.032 342.344 190.96 342.129 190.83C341.915 190.699 341.747 190.514 341.646 190.298L339.918 187.52L338.19 190.298C338.087 190.52 337.917 190.71 337.7 190.848C337.482 190.985 337.226 191.063 336.961 191.073Z" fill="black"/>
<path d="M356.074 191.073C355.91 191.073 355.748 191.043 355.598 190.984C355.448 190.926 355.312 190.84 355.199 190.733C355.076 190.622 354.979 190.489 354.915 190.343C354.85 190.197 354.82 190.04 354.825 189.882C354.824 189.616 354.903 189.355 355.054 189.126L356.927 186.48H353.097C352.919 186.489 352.742 186.462 352.577 186.404C352.412 186.345 352.263 186.255 352.139 186.14C351.925 185.914 351.807 185.626 351.807 185.327C351.807 185.029 351.925 184.741 352.139 184.515C352.263 184.4 352.412 184.31 352.577 184.251C352.742 184.192 352.919 184.166 353.097 184.175L356.865 184.269L355.095 181.718C354.928 181.466 354.835 181.18 354.825 180.886C354.82 180.728 354.85 180.572 354.915 180.425C354.979 180.279 355.076 180.146 355.199 180.035C355.316 179.927 355.455 179.842 355.609 179.783C355.763 179.725 355.928 179.695 356.095 179.695C356.328 179.692 356.557 179.751 356.753 179.866C356.949 179.98 357.104 180.144 357.198 180.338L359.03 183.305L360.779 180.47C360.889 180.25 361.064 180.061 361.284 179.924C361.505 179.787 361.762 179.708 362.028 179.695C362.192 179.695 362.354 179.725 362.504 179.784C362.654 179.842 362.79 179.928 362.903 180.035C363.025 180.139 363.121 180.265 363.186 180.405C363.25 180.545 363.282 180.696 363.278 180.848C363.275 181.116 363.188 181.379 363.028 181.604L361.196 184.269L365.006 184.175C365.183 184.165 365.36 184.19 365.526 184.249C365.691 184.308 365.84 184.399 365.963 184.515C366.177 184.741 366.295 185.029 366.295 185.327C366.295 185.626 366.177 185.914 365.963 186.14C365.84 186.256 365.691 186.347 365.526 186.406C365.36 186.464 365.183 186.49 365.006 186.48H361.154L362.861 188.9C363.054 189.192 363.161 189.523 363.173 189.863C363.179 190.017 363.151 190.169 363.09 190.312C363.029 190.455 362.937 190.585 362.819 190.695C362.71 190.801 362.578 190.886 362.431 190.944C362.284 191.003 362.126 191.034 361.966 191.035C361.708 191.032 361.456 190.96 361.241 190.83C361.027 190.699 360.859 190.514 360.758 190.298L359.03 187.52L357.302 190.298C357.2 190.52 357.03 190.71 356.812 190.848C356.595 190.985 356.338 191.063 356.074 191.073Z" fill="black"/>
<path d="M375.27 191.073C375.107 191.073 374.945 191.043 374.794 190.984C374.644 190.926 374.508 190.84 374.396 190.733C374.272 190.622 374.176 190.489 374.111 190.343C374.047 190.197 374.016 190.04 374.021 189.882C374.021 189.616 374.1 189.355 374.25 189.126L376.124 186.48H372.293C372.116 186.489 371.939 186.462 371.774 186.404C371.608 186.345 371.459 186.255 371.335 186.14C371.121 185.914 371.003 185.626 371.003 185.327C371.003 185.029 371.121 184.741 371.335 184.515C371.459 184.4 371.608 184.31 371.774 184.251C371.939 184.192 372.116 184.166 372.293 184.175L376.061 184.269L374.292 181.718C374.125 181.466 374.031 181.18 374.021 180.886C374.016 180.728 374.047 180.572 374.111 180.425C374.176 180.279 374.272 180.146 374.396 180.035C374.512 179.927 374.652 179.842 374.805 179.783C374.959 179.725 375.124 179.695 375.291 179.695C375.524 179.692 375.753 179.751 375.949 179.866C376.145 179.98 376.3 180.144 376.394 180.338L378.226 183.305L379.975 180.47C380.086 180.25 380.26 180.061 380.481 179.924C380.701 179.787 380.958 179.708 381.225 179.695C381.388 179.695 381.55 179.725 381.7 179.784C381.851 179.842 381.986 179.928 382.099 180.035C382.221 180.139 382.318 180.265 382.382 180.405C382.447 180.545 382.478 180.696 382.474 180.848C382.471 181.116 382.384 181.379 382.224 181.604L380.392 184.269L384.202 184.175C384.379 184.165 384.556 184.19 384.722 184.249C384.887 184.308 385.036 184.399 385.16 184.515C385.374 184.741 385.491 185.029 385.491 185.327C385.491 185.626 385.374 185.914 385.16 186.14C385.036 186.256 384.887 186.347 384.722 186.406C384.556 186.464 384.379 186.49 384.202 186.48H380.35L382.057 188.9C382.25 189.192 382.357 189.523 382.37 189.863C382.376 190.017 382.347 190.169 382.287 190.312C382.226 190.455 382.134 190.585 382.016 190.695C381.906 190.801 381.774 190.886 381.627 190.944C381.481 191.003 381.322 191.034 381.162 191.035C380.904 191.029 380.654 190.957 380.44 190.827C380.226 190.696 380.058 190.513 379.955 190.298L378.226 187.52L376.498 190.298C376.396 190.52 376.226 190.71 376.008 190.848C375.791 190.985 375.535 191.063 375.27 191.073Z" fill="black"/>
<path d="M394.299 191.073C394.136 191.073 393.974 191.043 393.824 190.984C393.673 190.926 393.538 190.84 393.425 190.733C393.302 190.622 393.205 190.489 393.14 190.343C393.076 190.197 393.045 190.04 393.05 189.882C393.06 189.617 393.138 189.358 393.279 189.126L395.153 186.48H391.322C391.145 186.489 390.968 186.462 390.803 186.404C390.638 186.345 390.488 186.255 390.364 186.14C390.15 185.914 390.033 185.626 390.033 185.327C390.033 185.029 390.15 184.741 390.364 184.515C390.488 184.4 390.638 184.31 390.803 184.251C390.968 184.192 391.145 184.166 391.322 184.175L395.091 184.269L393.321 181.718C393.154 181.466 393.061 181.18 393.05 180.886C393.045 180.728 393.076 180.572 393.14 180.425C393.205 180.279 393.302 180.146 393.425 180.035C393.542 179.927 393.681 179.842 393.835 179.783C393.988 179.725 394.153 179.695 394.32 179.695C394.553 179.692 394.782 179.751 394.979 179.866C395.175 179.98 395.33 180.144 395.424 180.338L397.256 183.305L399.005 180.47C399.115 180.25 399.29 180.061 399.51 179.924C399.73 179.787 399.987 179.708 400.254 179.695C400.418 179.693 400.58 179.722 400.731 179.781C400.882 179.839 401.017 179.926 401.128 180.035C401.25 180.139 401.347 180.265 401.411 180.405C401.476 180.545 401.507 180.696 401.503 180.848C401.5 181.116 401.414 181.379 401.253 181.604L399.421 184.269L403.231 184.175C403.408 184.165 403.586 184.191 403.751 184.249C403.916 184.308 404.066 184.399 404.189 184.515C404.403 184.741 404.521 185.029 404.521 185.327C404.521 185.626 404.403 185.914 404.189 186.14C404.066 186.256 403.916 186.347 403.751 186.406C403.586 186.464 403.408 186.49 403.231 186.48H399.379L401.087 188.9C401.279 189.192 401.387 189.523 401.399 189.863C401.405 190.017 401.377 190.169 401.316 190.312C401.255 190.455 401.163 190.585 401.045 190.695C400.935 190.801 400.803 190.886 400.657 190.944C400.51 191.003 400.352 191.034 400.191 191.035C399.934 191.029 399.683 190.957 399.469 190.827C399.255 190.696 399.087 190.513 398.984 190.298L397.256 187.52L395.528 190.298C395.425 190.52 395.255 190.71 395.038 190.848C394.82 190.985 394.564 191.063 394.299 191.073Z" fill="black"/>
<path d="M413.412 191.073C413.249 191.073 413.087 191.043 412.936 190.984C412.786 190.926 412.65 190.84 412.538 190.733C412.415 190.622 412.318 190.489 412.253 190.343C412.189 190.197 412.158 190.04 412.163 189.882C412.173 189.617 412.251 189.358 412.392 189.126L414.266 186.48H410.456C410.275 186.49 410.095 186.465 409.926 186.406C409.757 186.347 409.604 186.257 409.477 186.14C409.263 185.914 409.146 185.626 409.146 185.327C409.146 185.029 409.263 184.741 409.477 184.515C409.604 184.398 409.757 184.307 409.926 184.249C410.095 184.19 410.275 184.165 410.456 184.175L414.203 184.269L412.434 181.718C412.267 181.466 412.173 181.18 412.163 180.886C412.158 180.728 412.189 180.572 412.253 180.425C412.318 180.279 412.415 180.146 412.538 180.035C412.654 179.927 412.794 179.842 412.947 179.783C413.101 179.725 413.266 179.695 413.433 179.695C413.666 179.692 413.895 179.751 414.091 179.866C414.288 179.98 414.442 180.144 414.536 180.338L416.369 183.305L418.117 180.47C418.228 180.25 418.402 180.061 418.623 179.924C418.843 179.787 419.1 179.708 419.367 179.695C419.531 179.693 419.693 179.722 419.844 179.781C419.994 179.839 420.13 179.926 420.241 180.035C420.363 180.139 420.46 180.265 420.524 180.405C420.589 180.545 420.62 180.696 420.616 180.848C420.613 181.116 420.526 181.379 420.366 181.604L418.534 184.269L422.344 184.175C422.521 184.165 422.699 184.191 422.864 184.249C423.029 184.308 423.179 184.399 423.302 184.515C423.516 184.741 423.633 185.029 423.633 185.327C423.633 185.626 423.516 185.914 423.302 186.14C423.179 186.256 423.029 186.347 422.864 186.406C422.699 186.464 422.521 186.49 422.344 186.48H418.492L420.199 188.9C420.392 189.192 420.5 189.523 420.512 189.863C420.518 190.017 420.489 190.169 420.429 190.312C420.368 190.455 420.276 190.585 420.158 190.695C420.048 190.801 419.916 190.886 419.769 190.944C419.623 191.003 419.464 191.034 419.304 191.035C419.046 191.029 418.796 190.957 418.582 190.827C418.368 190.696 418.2 190.513 418.097 190.298L416.369 187.52L414.641 190.298C414.538 190.52 414.368 190.71 414.15 190.848C413.933 190.985 413.677 191.063 413.412 191.073Z" fill="black"/>
<path d="M432.525 191.073C432.361 191.073 432.2 191.043 432.049 190.984C431.899 190.926 431.763 190.84 431.65 190.733C431.527 190.622 431.431 190.489 431.366 190.343C431.302 190.196 431.271 190.04 431.276 189.882C431.275 189.616 431.355 189.355 431.505 189.126L433.379 186.48H429.548C429.371 186.489 429.194 186.462 429.028 186.404C428.863 186.345 428.714 186.255 428.59 186.14C428.376 185.914 428.258 185.626 428.258 185.327C428.258 185.029 428.376 184.741 428.59 184.515C428.714 184.4 428.863 184.31 429.028 184.251C429.194 184.192 429.371 184.166 429.548 184.174L433.316 184.269L431.484 181.812C431.317 181.56 431.224 181.274 431.213 180.98C431.208 180.823 431.239 180.666 431.304 180.52C431.368 180.374 431.465 180.241 431.588 180.13C431.705 180.022 431.844 179.936 431.998 179.878C432.151 179.819 432.317 179.789 432.483 179.79C432.716 179.787 432.945 179.846 433.142 179.96C433.338 180.074 433.493 180.239 433.587 180.432L435.419 183.4L437.168 180.565C437.278 180.344 437.453 180.155 437.673 180.018C437.893 179.882 438.151 179.803 438.417 179.79C438.581 179.787 438.744 179.817 438.894 179.875C439.045 179.934 439.18 180.021 439.291 180.13C439.413 180.234 439.51 180.36 439.574 180.5C439.639 180.64 439.67 180.791 439.666 180.943C439.663 181.211 439.577 181.473 439.416 181.699L437.584 184.363L441.394 184.269C441.571 184.26 441.749 184.285 441.914 184.344C442.08 184.402 442.229 184.493 442.352 184.609C442.566 184.835 442.684 185.124 442.684 185.422C442.684 185.72 442.566 186.008 442.352 186.235C442.229 186.351 442.08 186.441 441.914 186.5C441.749 186.559 441.571 186.584 441.394 186.575H437.543L439.25 188.994C439.442 189.286 439.55 189.618 439.562 189.958C439.568 190.111 439.54 190.264 439.479 190.407C439.418 190.55 439.326 190.68 439.208 190.789C439.098 190.896 438.966 190.98 438.82 191.039C438.673 191.097 438.515 191.128 438.354 191.13C438.097 191.124 437.846 191.052 437.632 190.921C437.418 190.79 437.25 190.607 437.147 190.393L435.419 187.614L433.691 190.393C433.579 190.588 433.412 190.754 433.208 190.874C433.003 190.993 432.768 191.062 432.525 191.073Z" fill="black"/>
<path d="M451.638 191.073C451.474 191.073 451.312 191.043 451.162 190.984C451.012 190.926 450.876 190.84 450.763 190.733C450.64 190.622 450.543 190.489 450.479 190.343C450.414 190.197 450.384 190.04 450.389 189.882C450.398 189.617 450.477 189.358 450.618 189.126L452.491 186.48H448.681C448.504 186.492 448.326 186.468 448.16 186.409C447.994 186.35 447.845 186.258 447.724 186.14C447.497 185.92 447.371 185.629 447.371 185.327C447.371 185.026 447.497 184.735 447.724 184.515C447.845 184.396 447.994 184.304 448.16 184.246C448.326 184.187 448.504 184.162 448.681 184.175L452.429 184.269L450.659 181.718C450.492 181.466 450.399 181.18 450.389 180.886C450.383 180.731 450.412 180.577 450.473 180.433C450.534 180.289 450.627 180.157 450.746 180.046C450.864 179.935 451.006 179.847 451.163 179.786C451.32 179.726 451.488 179.695 451.659 179.695C451.892 179.692 452.121 179.751 452.317 179.866C452.513 179.98 452.668 180.144 452.762 180.338L454.594 183.305L456.343 180.47C456.453 180.25 456.628 180.061 456.848 179.924C457.069 179.787 457.326 179.708 457.592 179.695C457.757 179.69 457.92 179.718 458.071 179.777C458.222 179.836 458.357 179.924 458.467 180.035C458.589 180.139 458.685 180.265 458.75 180.405C458.814 180.545 458.846 180.696 458.842 180.848C458.839 181.117 458.752 181.379 458.592 181.604L456.76 184.269L460.57 184.175C460.747 184.165 460.924 184.191 461.09 184.249C461.255 184.308 461.404 184.399 461.527 184.515C461.741 184.741 461.859 185.029 461.859 185.327C461.859 185.626 461.741 185.914 461.527 186.14C461.404 186.256 461.255 186.347 461.09 186.406C460.924 186.464 460.747 186.49 460.57 186.48H456.718L458.425 188.9C458.618 189.192 458.725 189.523 458.737 189.863C458.743 190.012 458.716 190.161 458.658 190.3C458.601 190.44 458.513 190.568 458.401 190.677C458.289 190.785 458.154 190.873 458.005 190.935C457.855 190.996 457.694 191.03 457.53 191.035C457.272 191.03 457.022 190.957 456.808 190.827C456.594 190.696 456.425 190.513 456.322 190.298L454.594 187.52L452.866 190.298C452.764 190.52 452.594 190.71 452.376 190.848C452.159 190.985 451.902 191.063 451.638 191.073Z" fill="black"/>
<path d="M470.751 191.073C470.587 191.073 470.425 191.043 470.275 190.984C470.125 190.926 469.989 190.84 469.876 190.733C469.753 190.622 469.656 190.489 469.592 190.343C469.527 190.197 469.497 190.04 469.501 189.882C469.511 189.617 469.59 189.358 469.73 189.126L471.604 186.48H467.773C467.599 186.49 467.425 186.464 467.263 186.405C467.101 186.346 466.956 186.256 466.836 186.14C466.61 185.92 466.483 185.629 466.483 185.327C466.483 185.026 466.61 184.735 466.836 184.515C466.956 184.399 467.101 184.309 467.263 184.25C467.425 184.191 467.599 184.165 467.773 184.175L471.542 184.269L469.772 181.718C469.605 181.466 469.512 181.18 469.501 180.886C469.496 180.731 469.525 180.577 469.586 180.433C469.647 180.289 469.74 180.157 469.858 180.046C469.977 179.935 470.119 179.847 470.276 179.786C470.432 179.726 470.601 179.695 470.771 179.695C471.005 179.692 471.234 179.751 471.43 179.866C471.626 179.98 471.781 180.144 471.875 180.338L473.707 183.305L475.456 180.47C475.566 180.25 475.741 180.061 475.961 179.924C476.181 179.787 476.439 179.708 476.705 179.695C476.869 179.69 477.033 179.718 477.184 179.777C477.335 179.836 477.47 179.924 477.58 180.035C477.702 180.139 477.798 180.265 477.863 180.405C477.927 180.545 477.958 180.696 477.954 180.848C477.952 181.117 477.865 181.379 477.705 181.604L475.872 184.269L479.682 184.175C479.86 184.165 480.037 184.191 480.202 184.249C480.368 184.308 480.517 184.399 480.64 184.515C480.854 184.741 480.972 185.029 480.972 185.327C480.972 185.626 480.854 185.914 480.64 186.14C480.517 186.256 480.368 186.347 480.202 186.406C480.037 186.464 479.86 186.49 479.682 186.48H475.831L477.538 188.9C477.731 189.192 477.838 189.523 477.85 189.863C477.856 190.012 477.829 190.161 477.771 190.3C477.714 190.44 477.626 190.568 477.514 190.677C477.402 190.785 477.267 190.873 477.118 190.935C476.968 190.996 476.807 191.03 476.643 191.035C476.385 191.03 476.134 190.957 475.92 190.827C475.707 190.696 475.538 190.513 475.435 190.298L473.707 187.52L471.979 190.298C471.876 190.52 471.706 190.71 471.489 190.848C471.271 190.985 471.015 191.063 470.751 191.073Z" fill="black"/>
<path d="M489.78 191.073C489.616 191.073 489.454 191.043 489.304 190.984C489.154 190.926 489.018 190.84 488.905 190.733C488.782 190.622 488.685 190.489 488.621 190.343C488.557 190.197 488.526 190.04 488.531 189.882C488.54 189.617 488.619 189.358 488.76 189.126L490.634 186.48H486.803C486.629 186.49 486.454 186.464 486.292 186.405C486.13 186.346 485.985 186.256 485.866 186.14C485.639 185.92 485.513 185.629 485.513 185.327C485.513 185.026 485.639 184.735 485.866 184.515C485.985 184.399 486.13 184.309 486.292 184.25C486.454 184.191 486.629 184.165 486.803 184.175L490.571 184.269L488.801 181.718C488.634 181.466 488.541 181.18 488.531 180.886C488.526 180.728 488.557 180.572 488.621 180.425C488.685 180.279 488.782 180.146 488.905 180.035C489.022 179.927 489.161 179.842 489.315 179.783C489.469 179.725 489.634 179.695 489.801 179.695C490.034 179.692 490.263 179.751 490.459 179.866C490.655 179.98 490.81 180.144 490.904 180.338L492.736 183.305L494.485 180.47C494.595 180.25 494.77 180.061 494.99 179.924C495.211 179.787 495.468 179.708 495.734 179.695C495.899 179.69 496.062 179.718 496.213 179.777C496.364 179.836 496.499 179.924 496.609 180.035C496.731 180.139 496.827 180.265 496.892 180.405C496.956 180.545 496.988 180.696 496.984 180.848C496.981 181.117 496.894 181.379 496.734 181.604L494.902 184.269L498.712 184.175C498.889 184.165 499.066 184.191 499.232 184.249C499.397 184.308 499.546 184.399 499.669 184.515C499.883 184.741 500.001 185.029 500.001 185.327C500.001 185.626 499.883 185.914 499.669 186.14C499.546 186.256 499.397 186.347 499.232 186.406C499.066 186.464 498.889 186.49 498.712 186.48H494.86L496.567 188.9C496.76 189.192 496.867 189.523 496.88 189.863C496.885 190.017 496.857 190.169 496.796 190.312C496.736 190.455 496.643 190.585 496.526 190.695C496.416 190.801 496.284 190.886 496.137 190.944C495.99 191.003 495.832 191.034 495.672 191.035C495.414 191.03 495.164 190.957 494.95 190.827C494.736 190.696 494.567 190.513 494.464 190.298L492.736 187.52L491.008 190.298C490.906 190.52 490.736 190.71 490.518 190.848C490.301 190.985 490.045 191.063 489.78 191.073Z" fill="black"/>
<path d="M555.28 232.88H580.743" stroke="white" stroke-width="3" stroke-linecap="round" stroke-linejoin="round"/>
<path d="M202.11 62.6853V216.21C202.11 220.656 204.056 224.92 207.519 228.064C210.982 231.208 215.679 232.974 220.577 232.974H531.108" stroke="white" stroke-width="3" stroke-linecap="round" stroke-linejoin="round"/>
<path d="M202.11 21.9747V44.9949" stroke="white" stroke-width="3" stroke-linecap="round" stroke-linejoin="round"/>
</svg>
