<svg viewBox="0 0 196 139" fill="none" xmlns="http://www.w3.org/2000/svg">
<path d="M154.635 114.19C134.817 128.323 112.63 133.609 86.4918 129.952C58.1322 122.401 37.6425 108.527 32.0462 84.5082C29.543 73.7646 32.3572 62.0939 33.6918 50.9192C33.9377 48.8605 38.6645 47.163 41.3231 45.2988C41.9395 47.949 43.7672 50.8769 42.9768 53.2045C37.6045 69.026 36.6192 84.0467 48.332 99.1974C54.0823 103.421 58.8622 107.34 63.795 110.547C63.795 110.547 63.795 110.555 65.3231 111.191C74.6478 120.286 87.4729 121.833 101.781 122.493C104.289 122.466 105.963 122.335 108.384 122.247C110.463 121.823 111.795 121.356 113.928 121.083C119.198 120.361 126.254 118.495 129.959 116.582C135.298 113.825 137.663 111.513 142.428 108.006C142.428 108.006 142.599 108.161 143.146 108.597C145.451 107.411 147.209 105.79 148.966 104.168C148.966 104.168 148.708 104.159 148.703 104.054C164.284 95.6531 167.009 82.2404 166.052 69.0909C165.369 59.7157 159.456 50.5977 156.165 40.2558C157.827 37.2768 159.201 35.4068 160.574 33.5369C181.475 52.8581 182.388 83.6119 162.658 105.979C160.305 108.647 157.62 111.116 154.635 114.19Z" fill="#0072C6"/>
<path d="M160.309 33.0409C159.201 35.4068 157.827 37.2768 155.943 39.6569C144.957 30.3021 133.165 21.3973 116.787 20.0052C102.317 18.7752 87.5694 19.7476 72.9445 19.7476C72.6607 18.8363 72.3768 17.925 72.093 17.0138C76.7557 15.5266 81.4184 14.0395 86.9044 12.4415C99.58 12.3217 111.008 12.788 123.77 12.8036C134.454 17.318 143.024 20.2163 151.963 25.6074C152.434 25.6992 152.921 26.2813 154.025 26.2813C153.609 26.7977 155.319 26.9335 155.88 27.655C157.569 29.5983 158.807 31.0716 160.309 33.0409Z" fill="#0072C6"/>
<path d="M116.285 108.165C106.344 107.694 96.4097 107.23 85.4805 106.791C84.4862 106.815 83.9011 106.707 83.3444 106.022C80.2668 104.426 77.7458 103.516 75.2248 102.606C73.0467 101.206 70.8686 99.8062 68.1262 97.3809C66.6574 95.5436 65.7529 94.7319 64.8484 93.9202C53.1244 81.8538 51.3458 66.8394 61.7852 54.3779C61.9187 68.5116 68.2025 79.8296 83.3431 88.3058C85.6141 89.3707 86.8261 89.7074 88.5545 90.091C89.0708 90.1379 90.0198 90.4855 90.5686 90.764C92.3622 91.2938 93.6069 91.5451 95.2896 91.7898C95.7275 91.7832 96.5496 92.0315 97.2208 92.3393C101.818 92.474 105.745 92.3011 110.337 91.9783C111.903 91.6726 112.803 91.5167 114.251 91.6863C116.634 91.0995 118.468 90.1873 120.277 88.992C120.252 88.7091 120.178 88.145 120.178 88.145C120.178 88.145 120.527 88.3039 121.505 88.3481C125.529 86.5441 128.576 84.6959 131.622 82.8476C131.854 82.3103 132.243 81.8665 133.658 81.0049C135.004 80.0124 135.482 79.5313 135.959 79.0501C135.959 79.0501 135.954 79.2935 136.266 78.9262C137.152 77.6403 137.725 76.7216 138.299 75.8029C138.299 75.8029 138.215 75.7459 138.636 75.3353C139.428 74.3192 139.798 73.7137 140.169 73.1082C140.169 73.1082 140.204 72.5754 140.757 71.9123C141.704 70.235 142.097 69.2209 142.49 68.2067C142.49 68.2067 142.556 67.4126 143.093 66.4503C144.944 62.4486 146.258 59.4092 147.571 56.3698C147.571 56.3698 147.985 56.8106 147.914 57.6361C148.491 59.4712 149.138 60.4808 149.786 61.4904C149.786 61.4904 149.991 61.8385 149.717 62.8484C149.488 68.7758 149.532 73.6931 149.577 78.6105C149.804 79.1913 149.776 79.7637 148.897 81.1823C147.955 83.0878 147.608 84.1389 147.262 85.1899C147.02 86.0984 146.779 87.007 145.589 88.3391C144.094 89.8779 143.547 90.9933 142.999 92.1087C141.765 93.6498 140.531 95.191 137.942 97.0906C134.322 99.347 132.056 101.245 129.79 103.143C129.79 103.143 129.666 102.981 129.288 103.169C128.361 103.762 127.812 104.169 127.263 104.575C127.263 104.575 127.262 104.564 126.66 104.664C124.974 105.251 123.891 105.739 122.808 106.227C122.808 106.227 122.236 106.531 121.182 106.626C118.845 107.2 117.562 107.68 116.278 108.159C116.278 108.159 116.292 108.171 116.285 108.165Z" fill="#0072C6"/>
<path d="M74.2495 45.4552C74.6913 44.6294 75.2075 44.1936 77.1808 43.5034C80.6774 43.3652 82.7172 43.4814 84.3877 44.1144C82.9984 45.9945 81.9782 47.3578 80.685 49.0218C80.3731 50.2745 80.3343 51.2266 80.356 52.8001C80.4444 54.2517 80.4722 55.082 80.4084 56.1488C80.2596 56.9033 80.4408 57.3589 81.5922 58.0098C82.7929 58.0627 83.2616 57.858 83.617 57.6576C83.5036 57.6619 83.5212 57.4759 83.1104 58.1135C85.631 61.4604 87.9477 65.4215 91.6127 66.6363C101.322 69.8543 110.547 66.271 114.313 58.9856C118.252 51.3659 114.453 44.6737 102.919 38.8586C102.887 36.0165 103.129 33.7131 103.37 31.4097C107.841 31.9464 112.313 32.4832 117.677 32.6873C122.499 35.5814 126.427 38.8081 131.061 41.7038C132.053 43.2946 131.995 45.3039 132.681 47.1247C138.884 63.6127 132.628 75.1382 111.805 82.3023C102.749 81.5444 95.2141 80.9951 87.227 80.409C86.7753 80.3723 85.868 80.3493 85.868 80.3493C85.868 80.3493 85.783 79.7693 85.3059 79.176C84.2817 78.1889 83.6786 77.8657 83.0196 77.6129C82.3974 77.5512 81.8466 77.3545 81.088 76.0477C78.6911 72.9062 76.5734 70.7398 74.4557 68.5734C74.4557 68.5734 74.5888 68.5273 74.5112 67.9776C73.7358 65.9656 73.0378 64.5032 72.3398 63.0408C71.9351 62.5299 71.7515 61.97 71.97 59.9911C72.1333 57.3611 72.1157 56.1013 72.0982 54.8414C72.1031 53.7276 72.1079 52.6137 72.7201 50.5409C73.6958 48.5978 74.0642 47.6137 74.4326 46.6295C74.4326 46.6295 74.3239 45.8451 74.2495 45.4552Z" fill="#0072C6"/>
</svg>
