<svg viewBox="0 0 20 20" fill="none" xmlns="http://www.w3.org/2000/svg">
<g clip-path="url(#clip0_250_6)">
<path d="M13.9096 10.3954L2.92175 11.05C2.66014 11.05 2.52933 11.1809 2.52933 11.3118L0.959641 16.6793C0.698026 17.3339 0.824981 18.2417 1.48287 18.7667C2.00831 19.1583 2.92175 19.25 3.44498 19.0357L18.0954 11.7045C18.8802 11.3118 19.2727 10.5263 19.1419 9.74081C19.0111 9.21715 18.6186 8.6935 18.0954 8.43167L3.44498 0.969542C2.79094 0.749989 2.0061 0.838627 1.48287 1.23137C0.828833 1.75503 0.698026 2.54052 0.959641 3.326L2.52933 8.6935C2.52933 8.82441 2.79094 8.95532 2.92175 8.95532L13.9096 9.6099C13.9096 9.6099 14.302 9.6099 14.302 10.0026C14.302 10.3954 13.9096 10.3954 13.9096 10.3954Z" fill="#0072C6"/>
</g>
<defs>
<clipPath id="clip0_250_6">
<rect width="20" height="20" fill="white"/>
</clipPath>
</defs>
</svg>
